<svg width="33" height="34" viewBox="0 0 33 34" fill="none" xmlns="http://www.w3.org/2000/svg">
<g clip-path="url(#clip0)">
<path d="M10.5826 26.0047C8.73748 26.0047 7.24182 27.5471 7.24182 29.4498C7.24182 31.3526 8.73755 32.895 10.5826 32.895C12.4276 32.895 13.9233 31.3525 13.9233 29.4498C13.9234 27.5471 12.4276 26.0047 10.5826 26.0047ZM10.5826 31.3638C9.55753 31.3638 8.72661 30.5069 8.72661 29.4499C8.72661 28.3928 9.55753 27.5359 10.5826 27.5359C11.6076 27.5359 12.4385 28.3928 12.4385 29.4499C12.4386 30.5069 11.6076 31.3638 10.5826 31.3638Z" fill="#EC5879"/>
<path d="M24.6882 26.0047C22.8431 26.0047 21.3474 27.5471 21.3474 29.4498C21.3474 31.3526 22.8431 32.895 24.6882 32.895C26.5332 32.895 28.0289 31.3525 28.0289 29.4498C28.0289 27.5471 26.5332 26.0047 24.6882 26.0047ZM24.6882 31.3638C23.6631 31.3638 22.8322 30.5069 22.8322 29.4499C22.8322 28.3928 23.6631 27.5359 24.6882 27.5359C25.7132 27.5359 26.5441 28.3928 26.5441 29.4499C26.5442 30.5069 25.7132 31.3638 24.6882 31.3638Z" fill="#EC5879"/>
<path d="M32.2234 5.90789C32.0688 5.73373 31.8573 5.62471 31.6295 5.60163L7.46464 5.25711L6.79649 3.15171C6.32578 1.74427 5.04775 0.794111 3.60417 0.778358H1.11715C0.707125 0.778358 0.374756 1.12111 0.374756 1.54395C0.374756 1.96679 0.707125 2.30955 1.11715 2.30955H3.60417C4.41136 2.32794 5.12214 2.86244 5.38594 3.64936L10.1001 18.3105L9.72898 19.1909C9.31498 20.2918 9.43931 21.531 10.0631 22.5212C10.6808 23.4938 11.7201 24.094 12.8471 24.129H27.2866C27.6967 24.129 28.029 23.7862 28.029 23.3634C28.029 22.9405 27.6967 22.5978 27.2866 22.5978H12.847C12.2106 22.5814 11.6248 22.2361 11.2879 21.679C10.9549 21.1288 10.8864 20.4509 11.1024 19.8416L11.3994 19.1526L27.0267 17.4682C28.7433 17.2733 30.1553 15.9858 30.5531 14.2527L32.3349 6.55853C32.4152 6.33696 32.3726 6.08777 32.2234 5.90789ZM29.1054 13.9083C28.8644 15.0239 27.946 15.8468 26.8412 15.9371L11.3994 17.5831L7.9472 6.7883L30.7016 7.13282L29.1054 13.9083Z" fill="#EC5879"/>
</g>
<defs>
<clipPath id="clip0">
<rect width="32" height="33" fill="white" transform="translate(0.374756 0.3367)"/>
</clipPath>
</defs>
</svg>
