<svg width="139" height="37" viewBox="0 0 139 37" fill="none" xmlns="http://www.w3.org/2000/svg">
<g clip-path="url(#clip0)">
<path d="M0.681122 17.324H30.1726V30.5443C30.1726 32.2294 28.8069 33.5952 27.1218 33.5952H0.681122V17.324Z" fill="#F0DBC2"/>
<path d="M0.681122 20.375H25.5964C26.4389 20.375 27.1218 21.0579 27.1218 21.9004V29.0191C27.1218 29.8616 26.4389 30.5445 25.5964 30.5445H0.681122V20.375Z" fill="#F2B9B8"/>
<path d="M0.681122 20.375H25.5964C26.4389 20.375 27.1218 21.0579 27.1218 21.9004V29.0191C27.1218 29.8616 26.4389 30.5445 25.5964 30.5445H0.681122V20.375Z" fill="#F2B9B8"/>
<path d="M0.681122 17.3239L18.4777 6.646C24.5316 6.64699 29.593 11.2492 30.1681 17.2757L30.1726 17.3239H0.681122Z" fill="#F29C9B"/>
<path d="M24.0709 12.2394C25.7559 12.2394 27.1218 10.8735 27.1218 9.18855C27.1218 7.50361 25.7559 6.1377 24.0709 6.1377C22.386 6.1377 21.0201 7.50361 21.0201 9.18855C21.0201 10.8735 22.386 12.2394 24.0709 12.2394Z" fill="#F0614A"/>
<path d="M25.5893 6.54443C25.516 8.81225 23.6947 10.6336 21.4269 10.7068C22.2628 12.1697 24.1264 12.6781 25.5893 11.8428C27.0521 11.0068 27.5606 9.1433 26.7252 7.68039C26.4547 7.20701 26.0626 6.81496 25.5893 6.54443Z" fill="#EA5242"/>
<path d="M24.5794 8.1715H23.5624C23.5655 5.64541 25.6126 3.59826 28.1387 3.59521V4.61217C26.174 4.61422 24.5814 6.20674 24.5794 8.1715Z" fill="#965735"/>
<path d="M19.1352 10.565L19.8542 9.84595L18.3287 8.32043L17.6096 9.03952L19.1352 10.565Z" fill="#965735"/>
<path d="M12.7368 13.6154L14.2623 12.0898L13.5432 11.3708L12.0177 12.8963L12.7368 13.6154Z" fill="#965735"/>
<path d="M15.576 15.6502L16.2951 14.9312L14.7695 13.4056L14.0505 14.1247L15.576 15.6502Z" fill="#965735"/>
<path d="M17.312 13.6171L18.8375 12.0916L18.1184 11.3725L16.5929 12.898L17.312 13.6171Z" fill="#965735"/>
<path d="M25.9558 15.6493L27.4813 14.1238L26.7622 13.4047L25.2367 14.9302L25.9558 15.6493Z" fill="#965735"/>
<path d="M20.3628 15.6498L21.8884 14.1243L21.1693 13.4052L19.6438 14.9307L20.3628 15.6498Z" fill="#965735"/>
<path d="M9.17624 15.652L10.7018 14.1265L9.98266 13.4074L8.45715 14.9329L9.17624 15.652Z" fill="#965735"/>
<path d="M19.334 20.3748H25.5964C26.4389 20.3748 27.1218 21.0577 27.1218 21.9003V29.0189C27.1218 29.8615 26.4389 30.5444 25.5964 30.5444H7.55873L4.02635 33.5952H27.1218C28.8069 33.5952 30.1726 32.2294 30.1726 30.5443V17.324H22.8669L19.334 20.3748Z" fill="#EBD3B7"/>
<path d="M25.5963 30.5445C26.4389 30.5445 27.1218 29.8616 27.1218 29.019V21.9004C27.1218 21.0579 26.4389 20.375 25.5963 20.375H19.334L7.55873 30.5445H25.5963Z" fill="#F2AEAC"/>
<path d="M27.1218 24.9512H0.681122V25.9681H27.1218V24.9512Z" fill="#F28685"/>
</g>
<path d="M52.2936 14.7972C52.527 15.1985 52.6436 15.5859 52.6436 15.9592C52.6436 16.0432 52.6343 16.1179 52.6156 16.1832C52.6063 16.2579 52.5923 16.3325 52.5736 16.4072C52.415 16.3885 52.247 16.3745 52.0696 16.3652C51.9016 16.3559 51.7243 16.3512 51.5376 16.3512C51.3136 16.3512 51.085 16.3559 50.8516 16.3652C50.6276 16.3839 50.3756 16.4072 50.0956 16.4352C49.8156 16.4632 49.503 16.5005 49.1576 16.5472C48.8123 16.5939 48.411 16.6545 47.9536 16.7292C47.739 16.6545 47.5243 16.5052 47.3096 16.2812C47.095 16.0665 46.8943 15.8052 46.7076 15.4972C46.801 15.2919 46.9176 15.0399 47.0576 14.7412C47.1976 14.4332 47.361 14.0645 47.5476 13.6352C47.7343 13.1965 47.9396 12.6879 48.1636 12.1092C48.397 11.5212 48.6443 10.8445 48.9056 10.0792C49.0736 9.57521 49.2183 9.13188 49.3396 8.74921C49.461 8.36655 49.5683 7.99788 49.6616 7.64321C49.7643 7.27921 49.8623 6.90121 49.9556 6.50921C50.049 6.11721 50.1516 5.66455 50.2636 5.15121C50.637 5.22588 50.959 5.36588 51.2296 5.57121C51.5096 5.76721 51.7756 6.05188 52.0276 6.42521C51.953 6.54655 51.855 6.74255 51.7336 7.01321C51.6123 7.28388 51.4676 7.61521 51.2996 8.00721C51.141 8.38988 50.9636 8.82855 50.7676 9.32321C50.5716 9.80855 50.3663 10.3312 50.1516 10.8912C49.9463 11.4419 49.7456 11.9599 49.5496 12.4452C49.3536 12.9305 49.1763 13.3692 49.0176 13.7612C48.8683 14.1532 48.747 14.4892 48.6536 14.7692C48.5603 15.0492 48.5136 15.2592 48.5136 15.3992C48.663 15.3899 48.7983 15.3805 48.9196 15.3712C49.041 15.3619 49.167 15.3479 49.2976 15.3292C49.4283 15.3012 49.5683 15.2732 49.7176 15.2452C49.8763 15.2079 50.063 15.1612 50.2776 15.1052C50.4643 15.0585 50.637 15.0212 50.7956 14.9932C50.9543 14.9559 51.1083 14.9279 51.2576 14.9092C51.4163 14.8812 51.575 14.8625 51.7336 14.8532C51.9016 14.8345 52.0883 14.8159 52.2936 14.7972ZM57.3728 15.2872C57.1955 15.1379 57.0741 14.9512 57.0088 14.7272C56.9528 14.5032 56.9248 14.3119 56.9248 14.1532C56.9248 13.9572 56.9481 13.7892 56.9948 13.6492C56.9575 13.6492 56.8735 13.7239 56.7428 13.8732C56.6121 14.0225 56.4675 14.1999 56.3088 14.4052C56.1595 14.6105 56.0101 14.8112 55.8608 15.0072C55.7115 15.2032 55.5995 15.3479 55.5248 15.4412C55.4035 15.5719 55.2868 15.6745 55.1748 15.7492C55.0721 15.8239 54.9881 15.8659 54.9228 15.8752C54.7735 15.8659 54.6148 15.8332 54.4468 15.7772C54.2881 15.7305 54.1341 15.6605 53.9848 15.5672C53.8448 15.4739 53.7188 15.3619 53.6068 15.2312C53.5041 15.1005 53.4341 14.9512 53.3968 14.7832C53.3968 14.5219 53.4015 14.3072 53.4108 14.1392C53.4295 13.9712 53.4621 13.7892 53.5088 13.5932C53.5928 13.2385 53.7141 12.8372 53.8728 12.3892C54.0408 11.9412 54.2321 11.5025 54.4468 11.0732C54.6615 10.6345 54.8995 10.2285 55.1608 9.85521C55.4315 9.47255 55.7161 9.17388 56.0148 8.95921C56.0988 8.95921 56.1968 8.96855 56.3088 8.98721C56.4208 8.99655 56.5328 9.01988 56.6448 9.05721C56.7661 9.09455 56.8781 9.14121 56.9808 9.19721C57.0928 9.24388 57.1861 9.30921 57.2608 9.39321C57.1768 9.48655 56.9621 9.79921 56.6168 10.3312C56.2808 10.8632 55.9028 11.6285 55.4828 12.6272C55.4361 12.7299 55.3801 12.8792 55.3148 13.0752C55.2495 13.2712 55.1841 13.4765 55.1188 13.6912C55.0535 13.9059 54.9975 14.1159 54.9508 14.3212C54.9135 14.5265 54.8948 14.6899 54.8948 14.8112C54.8948 14.8859 54.9041 14.9419 54.9228 14.9792C54.9508 15.0165 54.9741 15.0445 54.9928 15.0632C55.1328 15.0072 55.3101 14.8532 55.5248 14.6012C55.7395 14.3492 56.0381 13.9619 56.4208 13.4392C56.5141 13.3085 56.6215 13.1592 56.7428 12.9912C56.8735 12.8232 57.0041 12.6459 57.1348 12.4592C57.2655 12.2632 57.3868 12.0625 57.4988 11.8572C57.6201 11.6519 57.7181 11.4465 57.7928 11.2412C57.8301 11.1292 57.8768 10.9985 57.9328 10.8492C57.9981 10.6905 58.0728 10.5272 58.1568 10.3592C58.2501 10.1912 58.3528 10.0232 58.4648 9.85521C58.5861 9.67788 58.7261 9.51455 58.8848 9.36521C59.0061 9.36521 59.1368 9.37921 59.2768 9.40721C59.4168 9.43521 59.5475 9.47255 59.6688 9.51921C59.7995 9.55655 59.9115 9.60321 60.0048 9.65921C60.0981 9.70588 60.1681 9.75721 60.2148 9.81321C60.0468 10.2239 59.8601 10.6299 59.6548 11.0312C59.4495 11.4325 59.2581 11.8292 59.0808 12.2212C58.9035 12.6039 58.7541 12.9865 58.6328 13.3692C58.5115 13.7519 58.4508 14.1252 58.4508 14.4892C58.4508 14.6852 58.4648 14.8579 58.4928 15.0072C58.5301 15.1472 58.5675 15.2685 58.6048 15.3712C58.6421 15.4645 58.6748 15.5439 58.7028 15.6092C58.7401 15.6745 58.7588 15.7305 58.7588 15.7772C58.7588 15.7865 58.7495 15.8005 58.7308 15.8192C58.7215 15.8285 58.7121 15.8332 58.7028 15.8332C58.6375 15.8332 58.5535 15.8192 58.4508 15.7912C58.3481 15.7632 58.2315 15.7212 58.1008 15.6652C57.9795 15.6185 57.8535 15.5625 57.7228 15.4972C57.6015 15.4319 57.4848 15.3619 57.3728 15.2872ZM60.4984 13.1312C60.4984 12.5992 60.6057 12.0859 60.8204 11.5912C61.0444 11.0872 61.3337 10.6439 61.6884 10.2612C62.0524 9.86921 62.4631 9.55655 62.9204 9.32321C63.3871 9.08055 63.8677 8.95921 64.3624 8.95921C64.8477 8.95921 65.2211 9.08055 65.4824 9.32321C65.7437 9.56588 65.8744 9.91121 65.8744 10.3592C65.8744 10.5739 65.8417 10.7839 65.7764 10.9892C65.7204 11.1852 65.6411 11.3625 65.5384 11.5212C65.4451 11.6799 65.3331 11.8105 65.2024 11.9132C65.0717 12.0065 64.9411 12.0532 64.8104 12.0532C64.6984 12.0532 64.5817 12.0205 64.4604 11.9552C64.3484 11.8805 64.2551 11.7872 64.1804 11.6752C64.8057 11.1059 65.1184 10.5879 65.1184 10.1212C65.1184 9.85055 65.0111 9.71521 64.7964 9.71521C64.6097 9.71521 64.3764 9.80388 64.0964 9.98121C63.8164 10.1585 63.5457 10.3919 63.2844 10.6812C62.8831 11.1292 62.5751 11.6285 62.3604 12.1792C62.1551 12.7205 62.0524 13.2899 62.0524 13.8872C62.0524 14.6432 62.2204 15.0959 62.5564 15.2452C62.6964 15.2265 62.8597 15.1845 63.0464 15.1192C63.2331 15.0539 63.4337 14.9699 63.6484 14.8672C63.8631 14.7552 64.0824 14.6292 64.3064 14.4892C64.5397 14.3492 64.7637 14.1999 64.9784 14.0412C65.0157 14.0692 65.0484 14.1112 65.0764 14.1672C65.1044 14.2232 65.1184 14.2745 65.1184 14.3212C64.9597 14.5172 64.7777 14.7085 64.5724 14.8952C64.3671 15.0819 64.1524 15.2545 63.9284 15.4132C63.7044 15.5625 63.4851 15.6885 63.2704 15.7912C63.0651 15.9032 62.8831 15.9732 62.7244 16.0012C62.4164 15.9732 62.1271 15.8752 61.8564 15.7072C61.5857 15.5485 61.3477 15.3385 61.1424 15.0772C60.9464 14.8159 60.7877 14.5172 60.6664 14.1812C60.5544 13.8452 60.4984 13.4952 60.4984 13.1312ZM66.3213 14.2792C66.3213 13.9432 66.4053 13.4765 66.5733 12.8792C66.7507 12.2819 66.9793 11.6285 67.2593 10.9192C67.5393 10.2099 67.8567 9.47721 68.2113 8.72121C68.566 7.96521 68.9207 7.26055 69.2753 6.60721C69.6393 5.95388 69.9847 5.38921 70.3113 4.91321C70.6473 4.43721 70.932 4.11521 71.1653 3.94721C71.296 3.95655 71.436 4.01255 71.5853 4.11521C71.744 4.21788 71.8887 4.34388 72.0193 4.49321C72.15 4.63321 72.2573 4.78255 72.3413 4.94121C72.4347 5.09988 72.4813 5.24455 72.4813 5.37521C72.0613 5.71121 71.632 6.14521 71.1933 6.67721C70.764 7.19988 70.3533 7.77855 69.9613 8.41321C69.5693 9.03855 69.2053 9.70588 68.8693 10.4152C68.5427 11.1152 68.2673 11.8059 68.0433 12.4872C68.342 11.9739 68.6547 11.5072 68.9813 11.0872C69.308 10.6672 69.6347 10.3079 69.9613 10.0092C70.288 9.71055 70.6053 9.48188 70.9133 9.32321C71.2307 9.15521 71.5293 9.06655 71.8093 9.05721C72.22 9.35588 72.4253 9.75255 72.4253 10.2472C72.4253 10.5459 72.3647 10.8492 72.2433 11.1572C72.122 11.4559 71.9587 11.7359 71.7533 11.9972C71.5573 12.2492 71.3287 12.4685 71.0673 12.6552C70.8153 12.8325 70.5493 12.9492 70.2693 13.0052C70.3627 13.3319 70.4793 13.6632 70.6193 13.9992C70.7687 14.3352 70.9413 14.6619 71.1373 14.9792C71.3427 15.2965 71.5713 15.5905 71.8233 15.8612C72.0847 16.1319 72.3787 16.3605 72.7053 16.5472C72.6587 16.6405 72.5887 16.7339 72.4953 16.8272C72.402 16.9205 72.29 16.9999 72.1593 17.0652C72.0287 17.1399 71.884 17.1959 71.7253 17.2332C71.576 17.2799 71.4267 17.3032 71.2773 17.3032C71.0253 17.3032 70.7873 17.1772 70.5633 16.9252C70.3487 16.6732 70.1527 16.3092 69.9753 15.8332C69.8353 15.4505 69.7 14.9932 69.5693 14.4612C69.4387 13.9292 69.322 13.3739 69.2193 12.7952C69.35 12.7112 69.5133 12.5899 69.7093 12.4312C69.9053 12.2632 70.1107 12.0719 70.3253 11.8572C71.1467 11.0639 71.5573 10.3779 71.5573 9.79921C71.5573 9.72455 71.506 9.68721 71.4033 9.68721C71.2167 9.69655 70.9973 9.78521 70.7453 9.95321C70.4933 10.1212 70.2227 10.3545 69.9333 10.6532C69.6533 10.9519 69.364 11.3019 69.0653 11.7032C68.776 12.1045 68.496 12.5385 68.2253 13.0052C68.1133 13.1919 68.0107 13.4065 67.9173 13.6492C67.824 13.8919 67.74 14.1439 67.6653 14.4052C67.6 14.6572 67.5487 14.9092 67.5113 15.1612C67.474 15.4132 67.4553 15.6465 67.4553 15.8612C67.4553 15.9919 67.4693 16.0992 67.4973 16.1832C67.208 16.1552 67.0307 16.0805 66.9653 15.9592C66.8907 15.8472 66.8253 15.7539 66.7693 15.6792C66.7227 15.6139 66.6713 15.5579 66.6153 15.5112C66.5313 15.4459 66.4613 15.3059 66.4053 15.0912C66.3493 14.8765 66.3213 14.6059 66.3213 14.2792ZM78.5026 13.4252C78.288 14.1065 78.0733 14.7272 77.8586 15.2872C77.644 15.8472 77.4153 16.3605 77.1726 16.8272C76.93 17.3032 76.6686 17.7372 76.3886 18.1292C76.1086 18.5305 75.8006 18.9085 75.4646 19.2632C75.0353 19.7112 74.592 20.0519 74.1346 20.2852C73.6773 20.5279 73.22 20.6492 72.7626 20.6492C72.5293 20.6492 72.296 20.6212 72.0626 20.5652C71.8386 20.5185 71.6286 20.4485 71.4326 20.3552C71.2273 20.2712 71.05 20.1685 70.9006 20.0472C70.742 19.9352 70.63 19.8139 70.5646 19.6832C70.5646 19.5712 70.63 19.4732 70.7606 19.3892C70.8726 19.4919 70.966 19.5712 71.0406 19.6272C71.1153 19.6832 71.19 19.7299 71.2646 19.7672C71.33 19.8045 71.4046 19.8279 71.4886 19.8372C71.5633 19.8465 71.652 19.8512 71.7546 19.8512C72.2866 19.8512 72.8046 19.6925 73.3086 19.3752C73.822 19.0672 74.3026 18.6239 74.7506 18.0452C75.208 17.4759 75.6233 16.7805 75.9966 15.9592C76.37 15.1472 76.6873 14.2372 76.9486 13.2292C76.8273 13.4159 76.678 13.6445 76.5006 13.9152C76.3233 14.1859 76.1273 14.4565 75.9126 14.7272C75.698 14.9885 75.474 15.2265 75.2406 15.4412C75.0166 15.6559 74.7973 15.8005 74.5826 15.8752C74.4333 15.8659 74.2746 15.8332 74.1066 15.7772C73.948 15.7305 73.794 15.6605 73.6446 15.5672C73.5046 15.4739 73.3786 15.3619 73.2666 15.2312C73.1546 15.1005 73.08 14.9512 73.0426 14.7832C73.0426 14.5125 73.052 14.2979 73.0706 14.1392C73.0893 13.9712 73.122 13.7892 73.1686 13.5932C73.2526 13.2385 73.374 12.8372 73.5326 12.3892C73.7006 11.9412 73.892 11.5025 74.1066 11.0732C74.3306 10.6345 74.5733 10.2285 74.8346 9.85521C75.1053 9.47255 75.3853 9.17388 75.6746 8.95921C75.7493 8.95921 75.8426 8.96855 75.9546 8.98721C76.0666 8.99655 76.1833 9.01988 76.3046 9.05721C76.426 9.09455 76.5426 9.14121 76.6546 9.19721C76.7666 9.24388 76.8646 9.30921 76.9486 9.39321C76.846 9.48655 76.622 9.79921 76.2766 10.3312C75.9313 10.8632 75.5486 11.6285 75.1286 12.6272C75.082 12.7299 75.026 12.8792 74.9606 13.0752C74.8953 13.2712 74.83 13.4765 74.7646 13.6912C74.7086 13.9059 74.6573 14.1159 74.6106 14.3212C74.564 14.5265 74.5406 14.6899 74.5406 14.8112C74.5406 14.8859 74.55 14.9419 74.5686 14.9792C74.5966 15.0165 74.62 15.0445 74.6386 15.0632C74.8066 15.0352 75.0306 14.8999 75.3106 14.6572C75.5906 14.4052 75.908 14.0179 76.2626 13.4952C76.4866 13.1592 76.692 12.8279 76.8786 12.5012C77.0653 12.1652 77.2473 11.8292 77.4246 11.4932C77.6113 11.1572 77.8026 10.8119 77.9986 10.4572C78.1946 10.1025 78.4046 9.73855 78.6286 9.36521C78.75 9.36521 78.8806 9.37921 79.0206 9.40721C79.1606 9.43521 79.296 9.47255 79.4266 9.51921C79.5573 9.55655 79.6693 9.60321 79.7626 9.65921C79.8653 9.70588 79.94 9.75721 79.9866 9.81321C79.6973 10.4292 79.4266 11.0312 79.1746 11.6192C78.9226 12.2072 78.6986 12.8092 78.5026 13.4252ZM84.0542 12.8512C84.0542 12.1979 84.1288 11.5585 84.2782 10.9332C84.4368 10.2985 84.6562 9.70121 84.9362 9.14121C85.2162 8.57188 85.5475 8.05388 85.9302 7.58721C86.3222 7.11121 86.7468 6.70055 87.2042 6.35521C87.6708 6.00988 88.1655 5.74388 88.6882 5.55721C89.2108 5.36121 89.7475 5.26321 90.2982 5.26321C90.9422 5.26321 91.4415 5.39855 91.7962 5.66921C92.1602 5.93988 92.3422 6.31788 92.3422 6.80321C92.3422 6.98988 92.3142 7.18121 92.2582 7.37721C92.2115 7.57321 92.1368 7.76921 92.0342 7.96521C91.9408 8.15188 91.8288 8.33388 91.6982 8.51121C91.5675 8.68855 91.4228 8.84255 91.2642 8.97321C91.0215 8.93588 90.8115 8.82855 90.6342 8.65121C90.4568 8.46455 90.3448 8.24988 90.2982 8.00721C90.6248 7.73655 90.8815 7.45655 91.0682 7.16721C91.2642 6.86855 91.3622 6.59788 91.3622 6.35521C91.3622 5.94455 91.1055 5.73921 90.5922 5.73921C90.3775 5.73921 90.1535 5.78588 89.9202 5.87921C89.6962 5.96321 89.4675 6.08455 89.2342 6.24321C89.0008 6.40188 88.7722 6.59321 88.5482 6.81721C88.3335 7.04121 88.1328 7.28855 87.9462 7.55921C86.6488 9.42588 86.0002 11.3345 86.0002 13.2852C86.0002 13.9759 86.1075 14.5312 86.3222 14.9512C86.5368 15.3712 86.8215 15.6185 87.1762 15.6932C87.5775 15.5999 88.0862 15.3432 88.7022 14.9232C89.3182 14.5032 89.9902 13.9572 90.7182 13.2852C90.8115 13.3785 90.8675 13.4765 90.8862 13.5792C90.6155 13.9339 90.3355 14.2745 90.0462 14.6012C89.7568 14.9279 89.4675 15.2265 89.1782 15.4972C88.8982 15.7679 88.6182 16.0059 88.3382 16.2112C88.0675 16.4165 87.8155 16.5752 87.5822 16.6872C86.4248 16.6685 85.5475 16.3372 84.9502 15.6932C84.3528 15.0492 84.0542 14.1019 84.0542 12.8512ZM96.7034 9.93921C96.7967 9.93921 96.9041 9.95788 97.0254 9.99521C97.1561 10.0232 97.2727 10.0652 97.3754 10.1212C97.4781 10.1679 97.5621 10.2192 97.6274 10.2752C97.7021 10.3312 97.7394 10.3825 97.7394 10.4292C97.5527 10.8212 97.3801 11.2179 97.2214 11.6192C97.0627 12.0112 96.9274 12.3892 96.8154 12.7532C96.7034 13.1172 96.6147 13.4579 96.5494 13.7752C96.4934 14.0925 96.4654 14.3679 96.4654 14.6012C96.4654 14.8625 96.4934 15.0819 96.5494 15.2592C96.6054 15.4272 96.6987 15.5485 96.8294 15.6232C96.7174 15.6979 96.5727 15.7585 96.3954 15.8052C96.2181 15.8519 96.0594 15.8752 95.9194 15.8752C95.4154 15.8752 95.1634 15.5299 95.1634 14.8392C95.1634 14.3072 95.3407 13.5792 95.6954 12.6552C95.5087 13.0845 95.2941 13.4905 95.0514 13.8732C94.8087 14.2465 94.5614 14.5779 94.3094 14.8672C94.0574 15.1565 93.8007 15.3945 93.5394 15.5812C93.2874 15.7585 93.0541 15.8659 92.8394 15.9032C92.4941 15.8845 92.2141 15.7212 91.9994 15.4132C91.7847 15.0959 91.6774 14.6945 91.6774 14.2092C91.6774 13.6865 91.7894 13.1359 92.0134 12.5572C92.2374 11.9785 92.5221 11.4419 92.8674 10.9472C93.2221 10.4525 93.6047 10.0419 94.0154 9.71521C94.4261 9.37921 94.8227 9.20188 95.2054 9.18321C95.2987 9.21121 95.4014 9.26721 95.5134 9.35121C95.6347 9.43521 95.7467 9.53321 95.8494 9.64521C95.9614 9.75721 96.0547 9.87388 96.1294 9.99521C96.2041 10.1072 96.2461 10.2052 96.2554 10.2892C95.8821 10.3452 95.4947 10.5272 95.0934 10.8352C94.7014 11.1432 94.3421 11.5165 94.0154 11.9552C93.6981 12.3845 93.4367 12.8465 93.2314 13.3412C93.0261 13.8359 92.9234 14.2979 92.9234 14.7272C92.9234 14.9045 92.9887 15.0165 93.1194 15.0632C93.3901 15.0072 93.7027 14.7785 94.0574 14.3772C94.4121 13.9665 94.8414 13.3365 95.3454 12.4872C95.4387 12.3192 95.5414 12.1325 95.6534 11.9272C95.7747 11.7219 95.8961 11.5072 96.0174 11.2832C96.1387 11.0592 96.2554 10.8352 96.3674 10.6112C96.4887 10.3779 96.6007 10.1539 96.7034 9.93921ZM98.4776 14.2792C98.4776 13.9432 98.5616 13.4765 98.7296 12.8792C98.9069 12.2819 99.1356 11.6285 99.4156 10.9192C99.6956 10.2099 100.013 9.47721 100.368 8.72121C100.722 7.96521 101.077 7.26055 101.432 6.60721C101.796 5.95388 102.141 5.38921 102.468 4.91321C102.804 4.43721 103.088 4.11521 103.322 3.94721C103.452 3.95655 103.592 4.01255 103.742 4.11521C103.9 4.21788 104.045 4.34388 104.176 4.49321C104.306 4.63321 104.414 4.78255 104.498 4.94121C104.591 5.09988 104.638 5.24455 104.638 5.37521C104.218 5.71121 103.788 6.14521 103.35 6.67721C102.92 7.19988 102.51 7.77855 102.118 8.41321C101.726 9.03855 101.362 9.70588 101.026 10.4152C100.699 11.1152 100.424 11.8059 100.2 12.4872C100.498 11.9739 100.811 11.5072 101.138 11.0872C101.464 10.6672 101.791 10.3079 102.118 10.0092C102.444 9.71055 102.762 9.48188 103.07 9.32321C103.387 9.15521 103.686 9.06655 103.966 9.05721C104.376 9.35588 104.582 9.75255 104.582 10.2472C104.582 10.5459 104.521 10.8492 104.4 11.1572C104.278 11.4559 104.115 11.7359 103.91 11.9972C103.714 12.2492 103.485 12.4685 103.224 12.6552C102.972 12.8325 102.706 12.9492 102.426 13.0052C102.519 13.3319 102.636 13.6632 102.776 13.9992C102.925 14.3352 103.098 14.6619 103.294 14.9792C103.499 15.2965 103.728 15.5905 103.98 15.8612C104.241 16.1319 104.535 16.3605 104.862 16.5472C104.815 16.6405 104.745 16.7339 104.652 16.8272C104.558 16.9205 104.446 16.9999 104.316 17.0652C104.185 17.1399 104.04 17.1959 103.882 17.2332C103.732 17.2799 103.583 17.3032 103.434 17.3032C103.182 17.3032 102.944 17.1772 102.72 16.9252C102.505 16.6732 102.309 16.3092 102.132 15.8332C101.992 15.4505 101.856 14.9932 101.726 14.4612C101.595 13.9292 101.478 13.3739 101.376 12.7952C101.506 12.7112 101.67 12.5899 101.866 12.4312C102.062 12.2632 102.267 12.0719 102.482 11.8572C103.303 11.0639 103.714 10.3779 103.714 9.79921C103.714 9.72455 103.662 9.68721 103.56 9.68721C103.373 9.69655 103.154 9.78521 102.902 9.95321C102.65 10.1212 102.379 10.3545 102.09 10.6532C101.81 10.9519 101.52 11.3019 101.222 11.7032C100.932 12.1045 100.652 12.5385 100.382 13.0052C100.27 13.1919 100.167 13.4065 100.074 13.6492C99.9802 13.8919 99.8962 14.1439 99.8216 14.4052C99.7562 14.6572 99.7049 14.9092 99.6676 15.1612C99.6302 15.4132 99.6116 15.6465 99.6116 15.8612C99.6116 15.9919 99.6256 16.0992 99.6536 16.1832C99.3642 16.1552 99.1869 16.0805 99.1216 15.9592C99.0469 15.8472 98.9816 15.7539 98.9256 15.6792C98.8789 15.6139 98.8276 15.5579 98.7716 15.5112C98.6876 15.4459 98.6176 15.3059 98.5616 15.0912C98.5056 14.8765 98.4776 14.6059 98.4776 14.2792ZM110.339 9.79921C110.301 10.3779 110.199 10.8772 110.031 11.2972C109.863 11.7079 109.62 12.0719 109.303 12.3892C108.995 12.6972 108.617 12.9772 108.169 13.2292C107.721 13.4812 107.198 13.7239 106.601 13.9572C106.601 14.0132 106.596 14.0739 106.587 14.1392C106.587 14.1952 106.587 14.2559 106.587 14.3212C106.587 14.4425 106.596 14.5685 106.615 14.6992C106.633 14.8299 106.666 14.9512 106.713 15.0632C106.759 15.1752 106.825 15.2685 106.909 15.3432C106.993 15.4085 107.1 15.4412 107.231 15.4412C107.483 15.4412 107.73 15.3852 107.973 15.2732C108.215 15.1612 108.444 15.0259 108.659 14.8672C108.883 14.6992 109.088 14.5219 109.275 14.3352C109.471 14.1392 109.643 13.9619 109.793 13.8032C109.886 13.8872 109.965 13.9665 110.031 14.0412C109.611 14.6012 109.149 15.0679 108.645 15.4412C108.15 15.8052 107.679 16.0385 107.231 16.1412C106.587 16.0665 106.083 15.8332 105.719 15.4412C105.364 15.0399 105.187 14.5592 105.187 13.9992C105.187 13.6165 105.238 13.2292 105.341 12.8372C105.453 12.4359 105.602 12.0532 105.789 11.6892C105.985 11.3159 106.209 10.9659 106.461 10.6392C106.722 10.3125 106.997 10.0279 107.287 9.78521C107.585 9.54255 107.889 9.35121 108.197 9.21121C108.514 9.07121 108.827 9.00121 109.135 9.00121C109.564 9.05721 109.965 9.32321 110.339 9.79921ZM109.373 10.2612C109.121 10.2985 108.859 10.4012 108.589 10.5692C108.318 10.7372 108.061 10.9612 107.819 11.2412C107.585 11.5212 107.371 11.8479 107.175 12.2212C106.979 12.5945 106.825 12.9959 106.713 13.4252C107.459 13.0519 108.08 12.5945 108.575 12.0532C109.069 11.5025 109.335 10.9052 109.373 10.2612Z" fill="#EBD7DC"/>
<path d="M52.5836 25.9632H49.6316V33.5952H48.7556V25.9632H45.8036V25.1952H52.5836V25.9632ZM55.8861 33.6552C55.2781 33.6552 54.7301 33.5192 54.2421 33.2472C53.7541 32.9672 53.3701 32.5832 53.0901 32.0952C52.8101 31.6072 52.6701 31.0552 52.6701 30.4392C52.6701 29.8232 52.8101 29.2712 53.0901 28.7832C53.3701 28.2952 53.7541 27.9152 54.2421 27.6432C54.7301 27.3712 55.2781 27.2352 55.8861 27.2352C56.4941 27.2352 57.0421 27.3712 57.5301 27.6432C58.0181 27.9152 58.3981 28.2952 58.6701 28.7832C58.9501 29.2712 59.0901 29.8232 59.0901 30.4392C59.0901 31.0552 58.9501 31.6072 58.6701 32.0952C58.3981 32.5832 58.0181 32.9672 57.5301 33.2472C57.0421 33.5192 56.4941 33.6552 55.8861 33.6552ZM55.8861 32.8992C56.3341 32.8992 56.7341 32.7992 57.0861 32.5992C57.4461 32.3912 57.7261 32.0992 57.9261 31.7232C58.1261 31.3472 58.2261 30.9192 58.2261 30.4392C58.2261 29.9592 58.1261 29.5312 57.9261 29.1552C57.7261 28.7792 57.4461 28.4912 57.0861 28.2912C56.7341 28.0832 56.3341 27.9792 55.8861 27.9792C55.4381 27.9792 55.0341 28.0832 54.6741 28.2912C54.3221 28.4912 54.0421 28.7792 53.8341 29.1552C53.6341 29.5312 53.5341 29.9592 53.5341 30.4392C53.5341 30.9192 53.6341 31.3472 53.8341 31.7232C54.0421 32.0992 54.3221 32.3912 54.6741 32.5992C55.0341 32.7992 55.4381 32.8992 55.8861 32.8992ZM64.163 27.2352C64.755 27.2352 65.291 27.3712 65.771 27.6432C66.251 27.9072 66.627 28.2832 66.899 28.7712C67.171 29.2592 67.307 29.8152 67.307 30.4392C67.307 31.0712 67.171 31.6312 66.899 32.1192C66.627 32.6072 66.251 32.9872 65.771 33.2592C65.299 33.5232 64.763 33.6552 64.163 33.6552C63.651 33.6552 63.187 33.5512 62.771 33.3432C62.363 33.1272 62.027 32.8152 61.763 32.4072V35.9232H60.911V27.2832H61.727V28.5312C61.983 28.1152 62.319 27.7952 62.735 27.5712C63.159 27.3472 63.635 27.2352 64.163 27.2352ZM64.103 32.8992C64.543 32.8992 64.943 32.7992 65.303 32.5992C65.663 32.3912 65.943 32.0992 66.143 31.7232C66.351 31.3472 66.455 30.9192 66.455 30.4392C66.455 29.9592 66.351 29.5352 66.143 29.1672C65.943 28.7912 65.663 28.4992 65.303 28.2912C64.943 28.0832 64.543 27.9792 64.103 27.9792C63.655 27.9792 63.251 28.0832 62.891 28.2912C62.539 28.4992 62.259 28.7912 62.051 29.1672C61.851 29.5352 61.751 29.9592 61.751 30.4392C61.751 30.9192 61.851 31.3472 62.051 31.7232C62.259 32.0992 62.539 32.3912 62.891 32.5992C63.251 32.7992 63.655 32.8992 64.103 32.8992ZM73.3432 28.0392H70.9552V33.5952H70.1032V28.0392H67.7152V27.2832H73.3432V28.0392ZM77.2271 29.5152C78.0191 29.5232 78.6231 29.6992 79.0391 30.0432C79.4551 30.3872 79.6631 30.8832 79.6631 31.5312C79.6631 32.2032 79.4391 32.7192 78.9911 33.0792C78.5431 33.4392 77.9031 33.6152 77.0711 33.6072L74.5751 33.5952V27.2832H75.4271V29.4912L77.2271 29.5152ZM80.7191 27.2832H81.5711V33.5952H80.7191V27.2832ZM77.0231 32.9592C77.6071 32.9672 78.0471 32.8512 78.3431 32.6112C78.6471 32.3632 78.7991 32.0032 78.7991 31.5312C78.7991 31.0672 78.6511 30.7232 78.3551 30.4992C78.0591 30.2752 77.6151 30.1592 77.0231 30.1512L75.4271 30.1272V32.9352L77.0231 32.9592ZM87.1376 27.2832H87.9896V30.0792H91.9616V27.2832H92.8136V33.5952H91.9616V30.8112H87.9896V33.5952H87.1376V27.2832ZM97.4072 27.2352C98.2312 27.2352 98.8632 27.4432 99.3032 27.8592C99.7432 28.2672 99.9632 28.8752 99.9632 29.6832V33.5952H99.1472V32.6112C98.9552 32.9392 98.6712 33.1952 98.2952 33.3792C97.9272 33.5632 97.4872 33.6552 96.9752 33.6552C96.2712 33.6552 95.7112 33.4872 95.2952 33.1512C94.8792 32.8152 94.6712 32.3712 94.6712 31.8192C94.6712 31.2832 94.8632 30.8512 95.2472 30.5232C95.6392 30.1952 96.2592 30.0312 97.1072 30.0312H99.1112V29.6472C99.1112 29.1032 98.9592 28.6912 98.6552 28.4112C98.3512 28.1232 97.9072 27.9792 97.3232 27.9792C96.9232 27.9792 96.5392 28.0472 96.1712 28.1832C95.8032 28.3112 95.4872 28.4912 95.2232 28.7232L94.8392 28.0872C95.1592 27.8152 95.5432 27.6072 95.9912 27.4632C96.4392 27.3112 96.9112 27.2352 97.4072 27.2352ZM97.1072 32.9832C97.5872 32.9832 97.9992 32.8752 98.3432 32.6592C98.6872 32.4352 98.9432 32.1152 99.1112 31.6992V30.6672H97.1312C96.0512 30.6672 95.5112 31.0432 95.5112 31.7952C95.5112 32.1632 95.6512 32.4552 95.9312 32.6712C96.2112 32.8792 96.6032 32.9832 97.1072 32.9832ZM108.444 30.3072C108.892 30.4112 109.236 30.5912 109.476 30.8472C109.724 31.1032 109.848 31.4152 109.848 31.7832C109.848 32.1512 109.72 32.4792 109.464 32.7672C109.216 33.0552 108.876 33.2792 108.444 33.4392C108.012 33.5912 107.536 33.6672 107.016 33.6672C106.56 33.6672 106.112 33.6032 105.672 33.4752C105.232 33.3392 104.848 33.1432 104.52 32.8872L104.808 32.2512C105.096 32.4672 105.432 32.6352 105.816 32.7552C106.2 32.8752 106.588 32.9352 106.98 32.9352C107.564 32.9352 108.04 32.8272 108.408 32.6112C108.784 32.3872 108.972 32.0872 108.972 31.7112C108.972 31.3752 108.82 31.1152 108.516 30.9312C108.212 30.7392 107.796 30.6432 107.268 30.6432H106.188V30.0192H107.22C107.692 30.0192 108.072 29.9312 108.36 29.7552C108.648 29.5712 108.792 29.3272 108.792 29.0232C108.792 28.6872 108.628 28.4232 108.3 28.2312C107.98 28.0392 107.56 27.9432 107.04 27.9432C106.36 27.9432 105.688 28.1152 105.024 28.4592L104.784 27.7992C105.536 27.4072 106.316 27.2112 107.124 27.2112C107.604 27.2112 108.036 27.2832 108.42 27.4272C108.812 27.5632 109.116 27.7592 109.332 28.0152C109.556 28.2712 109.668 28.5672 109.668 28.9032C109.668 29.2232 109.556 29.5072 109.332 29.7552C109.116 30.0032 108.82 30.1872 108.444 30.3072ZM113.954 27.2352C114.778 27.2352 115.41 27.4432 115.85 27.8592C116.29 28.2672 116.51 28.8752 116.51 29.6832V33.5952H115.694V32.6112C115.502 32.9392 115.218 33.1952 114.842 33.3792C114.474 33.5632 114.034 33.6552 113.522 33.6552C112.818 33.6552 112.258 33.4872 111.842 33.1512C111.426 32.8152 111.218 32.3712 111.218 31.8192C111.218 31.2832 111.41 30.8512 111.794 30.5232C112.186 30.1952 112.806 30.0312 113.654 30.0312H115.658V29.6472C115.658 29.1032 115.506 28.6912 115.202 28.4112C114.898 28.1232 114.454 27.9792 113.87 27.9792C113.47 27.9792 113.086 28.0472 112.718 28.1832C112.35 28.3112 112.034 28.4912 111.77 28.7232L111.386 28.0872C111.706 27.8152 112.09 27.6072 112.538 27.4632C112.986 27.3112 113.458 27.2352 113.954 27.2352ZM113.654 32.9832C114.134 32.9832 114.546 32.8752 114.89 32.6592C115.234 32.4352 115.49 32.1152 115.658 31.6992V30.6672H113.678C112.598 30.6672 112.058 31.0432 112.058 31.7952C112.058 32.1632 112.198 32.4552 112.478 32.6712C112.758 32.8792 113.15 32.9832 113.654 32.9832ZM121.07 30.7872H119.63V33.5952H118.778V27.2832H119.63V30.0552H121.082L123.302 27.2832H124.226L121.742 30.3432L124.406 33.5952H123.398L121.07 30.7872ZM127.806 27.2352C128.63 27.2352 129.262 27.4432 129.702 27.8592C130.142 28.2672 130.362 28.8752 130.362 29.6832V33.5952H129.546V32.6112C129.354 32.9392 129.07 33.1952 128.694 33.3792C128.326 33.5632 127.886 33.6552 127.374 33.6552C126.67 33.6552 126.11 33.4872 125.694 33.1512C125.278 32.8152 125.07 32.3712 125.07 31.8192C125.07 31.2832 125.262 30.8512 125.646 30.5232C126.038 30.1952 126.658 30.0312 127.506 30.0312H129.51V29.6472C129.51 29.1032 129.358 28.6912 129.054 28.4112C128.75 28.1232 128.306 27.9792 127.722 27.9792C127.322 27.9792 126.938 28.0472 126.57 28.1832C126.202 28.3112 125.886 28.4912 125.622 28.7232L125.238 28.0872C125.558 27.8152 125.942 27.6072 126.39 27.4632C126.838 27.3112 127.31 27.2352 127.806 27.2352ZM127.506 32.9832C127.986 32.9832 128.398 32.8752 128.742 32.6592C129.086 32.4352 129.342 32.1152 129.51 31.6992V30.6672H127.53C126.45 30.6672 125.91 31.0432 125.91 31.7952C125.91 32.1632 126.05 32.4552 126.33 32.6712C126.61 32.8792 127.002 32.9832 127.506 32.9832ZM135.573 30.3072C136.021 30.4112 136.365 30.5912 136.605 30.8472C136.853 31.1032 136.977 31.4152 136.977 31.7832C136.977 32.1512 136.849 32.4792 136.593 32.7672C136.345 33.0552 136.005 33.2792 135.573 33.4392C135.141 33.5912 134.665 33.6672 134.145 33.6672C133.689 33.6672 133.241 33.6032 132.801 33.4752C132.361 33.3392 131.977 33.1432 131.649 32.8872L131.937 32.2512C132.225 32.4672 132.561 32.6352 132.945 32.7552C133.329 32.8752 133.717 32.9352 134.109 32.9352C134.693 32.9352 135.169 32.8272 135.537 32.6112C135.913 32.3872 136.101 32.0872 136.101 31.7112C136.101 31.3752 135.949 31.1152 135.645 30.9312C135.341 30.7392 134.925 30.6432 134.397 30.6432H133.317V30.0192H134.349C134.821 30.0192 135.201 29.9312 135.489 29.7552C135.777 29.5712 135.921 29.3272 135.921 29.0232C135.921 28.6872 135.757 28.4232 135.429 28.2312C135.109 28.0392 134.689 27.9432 134.169 27.9432C133.489 27.9432 132.817 28.1152 132.153 28.4592L131.913 27.7992C132.665 27.4072 133.445 27.2112 134.253 27.2112C134.733 27.2112 135.165 27.2832 135.549 27.4272C135.941 27.5632 136.245 27.7592 136.461 28.0152C136.685 28.2712 136.797 28.5672 136.797 28.9032C136.797 29.2232 136.685 29.5072 136.461 29.7552C136.245 30.0032 135.949 30.1872 135.573 30.3072Z" fill="white"/>
<defs>
<clipPath id="clip0">
<rect width="30" height="30" fill="white" transform="translate(0.42688 3.59521)"/>
</clipPath>
</defs>
</svg>
