<svg width="31" height="31" viewBox="0 0 31 31" fill="none" xmlns="http://www.w3.org/2000/svg">
<g clip-path="url(#clip0)">
<path d="M1.24527 14.6686H30.7368V27.8889C30.7368 29.574 29.371 30.9397 27.6859 30.9397H1.24527V14.6686Z" fill="#F0DBC2"/>
<path d="M1.24527 17.7194H26.1605C27.003 17.7194 27.6859 18.4023 27.6859 19.2448V26.3635C27.6859 27.206 27.003 27.8889 26.1605 27.8889H1.24527V17.7194Z" fill="#F2B9B8"/>
<path d="M1.24527 17.7194H26.1605C27.003 17.7194 27.6859 18.4023 27.6859 19.2448V26.3635C27.6859 27.206 27.003 27.8889 26.1605 27.8889H1.24527V17.7194Z" fill="#F2B9B8"/>
<path d="M1.24527 14.6685L19.0419 3.9906C25.0958 3.99159 30.1571 8.59384 30.7322 14.6203L30.7368 14.6685H1.24527Z" fill="#F29C9B"/>
<path d="M24.6351 9.58384C26.32 9.58384 27.6859 8.21793 27.6859 6.53298C27.6859 4.84804 26.32 3.48212 24.6351 3.48212C22.9501 3.48212 21.5842 4.84804 21.5842 6.53298C21.5842 8.21793 22.9501 9.58384 24.6351 9.58384Z" fill="#F0614A"/>
<path d="M26.1534 3.88888C26.0802 6.15669 24.2588 7.97802 21.991 8.05126C22.827 9.51417 24.6905 10.0226 26.1534 9.18722C27.6163 8.35126 28.1247 6.48775 27.2894 5.02484C27.0188 4.55146 26.6268 4.15941 26.1534 3.88888Z" fill="#EA5242"/>
<path d="M25.1435 5.51603H24.1266C24.1297 2.98994 26.1768 0.94279 28.7029 0.939743V1.9567C26.7382 1.95875 25.1456 3.55127 25.1435 5.51603Z" fill="#965735"/>
<path d="M19.6993 7.90961L20.4184 7.19052L18.8929 5.66501L18.1738 6.3841L19.6993 7.90961Z" fill="#965735"/>
<path d="M13.3009 10.96L14.8264 9.43449L14.1073 8.7154L12.5818 10.2409L13.3009 10.96Z" fill="#965735"/>
<path d="M16.1401 12.9948L16.8592 12.2757L15.3337 10.7502L14.6146 11.4693L16.1401 12.9948Z" fill="#965735"/>
<path d="M17.8761 10.9616L19.4016 9.43606L18.6826 8.71697L17.157 10.2425L17.8761 10.9616Z" fill="#965735"/>
<path d="M26.52 12.9939L28.0455 11.4684L27.3264 10.7493L25.8009 12.2748L26.52 12.9939Z" fill="#965735"/>
<path d="M20.927 12.9943L22.4525 11.4688L21.7334 10.7497L20.2079 12.2753L20.927 12.9943Z" fill="#965735"/>
<path d="M9.74039 12.9966L11.2659 11.4711L10.5468 10.752L9.0213 12.2775L9.74039 12.9966Z" fill="#965735"/>
<path d="M19.8981 17.7194H26.1605C27.003 17.7194 27.6859 18.4023 27.6859 19.2448V26.3635C27.6859 27.206 27.003 27.8889 26.1605 27.8889H8.12288L4.5905 30.9397H27.6859C29.371 30.9397 30.7368 29.574 30.7368 27.8889V14.6686H23.431L19.8981 17.7194Z" fill="#EBD3B7"/>
<path d="M26.1605 27.8889C27.003 27.8889 27.6859 27.206 27.6859 26.3635V19.2448C27.6859 18.4023 27.003 17.7194 26.1605 17.7194H19.8981L8.12288 27.8889H26.1605Z" fill="#F2AEAC"/>
<path d="M27.6859 22.2957H1.24527V23.3127H27.6859V22.2957Z" fill="#F28685"/>
</g>
<defs>
<clipPath id="clip0">
<rect width="30" height="30" fill="white" transform="translate(0.991028 0.939743)"/>
</clipPath>
</defs>
</svg>
