<svg width="138" height="37" viewBox="0 0 138 37" fill="none" xmlns="http://www.w3.org/2000/svg">
<path d="M51.2847 14.3309C51.518 14.7323 51.6347 15.1196 51.6347 15.4929C51.6347 15.5769 51.6253 15.6516 51.6067 15.7169C51.5973 15.7916 51.5833 15.8663 51.5647 15.9409C51.406 15.9223 51.238 15.9083 51.0607 15.8989C50.8927 15.8896 50.7153 15.8849 50.5287 15.8849C50.3047 15.8849 50.076 15.8896 49.8427 15.8989C49.6187 15.9176 49.3667 15.9409 49.0867 15.9689C48.8067 15.9969 48.494 16.0343 48.1487 16.0809C47.8033 16.1276 47.402 16.1883 46.9447 16.2629C46.73 16.1883 46.5153 16.0389 46.3007 15.8149C46.086 15.6003 45.8853 15.3389 45.6987 15.0309C45.792 14.8256 45.9087 14.5736 46.0487 14.2749C46.1887 13.9669 46.352 13.5983 46.5387 13.1689C46.7253 12.7303 46.9307 12.2216 47.1547 11.6429C47.388 11.0549 47.6353 10.3783 47.8967 9.61294C48.0647 9.10894 48.2093 8.6656 48.3307 8.28294C48.452 7.90027 48.5593 7.5316 48.6527 7.17694C48.7553 6.81294 48.8533 6.43494 48.9467 6.04294C49.04 5.65094 49.1427 5.19827 49.2547 4.68494C49.628 4.7596 49.95 4.8996 50.2207 5.10494C50.5007 5.30094 50.7667 5.5856 51.0187 5.95894C50.944 6.08027 50.846 6.27627 50.7247 6.54694C50.6033 6.8176 50.4587 7.14894 50.2907 7.54094C50.132 7.9236 49.9547 8.36227 49.7587 8.85694C49.5627 9.34227 49.3573 9.86494 49.1427 10.4249C48.9373 10.9756 48.7367 11.4936 48.5407 11.9789C48.3447 12.4643 48.1673 12.9029 48.0087 13.2949C47.8593 13.6869 47.738 14.0229 47.6447 14.3029C47.5513 14.5829 47.5047 14.7929 47.5047 14.9329C47.654 14.9236 47.7893 14.9143 47.9107 14.9049C48.032 14.8956 48.158 14.8816 48.2887 14.8629C48.4193 14.8349 48.5593 14.8069 48.7087 14.7789C48.8673 14.7416 49.054 14.6949 49.2687 14.6389C49.4553 14.5923 49.628 14.5549 49.7867 14.5269C49.9453 14.4896 50.0993 14.4616 50.2487 14.4429C50.4073 14.4149 50.566 14.3963 50.7247 14.3869C50.8927 14.3683 51.0793 14.3496 51.2847 14.3309ZM56.3638 14.8209C56.1865 14.6716 56.0651 14.4849 55.9998 14.2609C55.9438 14.0369 55.9158 13.8456 55.9158 13.6869C55.9158 13.4909 55.9391 13.3229 55.9858 13.1829C55.9485 13.1829 55.8645 13.2576 55.7338 13.4069C55.6031 13.5563 55.4585 13.7336 55.2998 13.9389C55.1505 14.1443 55.0011 14.3449 54.8518 14.5409C54.7025 14.7369 54.5905 14.8816 54.5158 14.9749C54.3945 15.1056 54.2778 15.2083 54.1658 15.2829C54.0631 15.3576 53.9791 15.3996 53.9138 15.4089C53.7645 15.3996 53.6058 15.3669 53.4378 15.3109C53.2791 15.2643 53.1251 15.1943 52.9758 15.1009C52.8358 15.0076 52.7098 14.8956 52.5978 14.7649C52.4951 14.6343 52.4251 14.4849 52.3878 14.3169C52.3878 14.0556 52.3925 13.8409 52.4018 13.6729C52.4205 13.5049 52.4531 13.3229 52.4998 13.1269C52.5838 12.7723 52.7051 12.3709 52.8638 11.9229C53.0318 11.4749 53.2231 11.0363 53.4378 10.6069C53.6525 10.1683 53.8905 9.76227 54.1518 9.38894C54.4225 9.00627 54.7071 8.7076 55.0058 8.49294C55.0898 8.49294 55.1878 8.50227 55.2998 8.52094C55.4118 8.53027 55.5238 8.5536 55.6358 8.59094C55.7571 8.62827 55.8691 8.67494 55.9718 8.73094C56.0838 8.7776 56.1771 8.84294 56.2518 8.92694C56.1678 9.02027 55.9531 9.33294 55.6078 9.86494C55.2718 10.3969 54.8938 11.1623 54.4738 12.1609C54.4271 12.2636 54.3711 12.4129 54.3058 12.6089C54.2405 12.8049 54.1751 13.0103 54.1098 13.2249C54.0445 13.4396 53.9885 13.6496 53.9418 13.8549C53.9045 14.0603 53.8858 14.2236 53.8858 14.3449C53.8858 14.4196 53.8951 14.4756 53.9138 14.5129C53.9418 14.5503 53.9651 14.5783 53.9838 14.5969C54.1238 14.5409 54.3011 14.3869 54.5158 14.1349C54.7305 13.8829 55.0291 13.4956 55.4118 12.9729C55.5051 12.8423 55.6125 12.6929 55.7338 12.5249C55.8645 12.3569 55.9951 12.1796 56.1258 11.9929C56.2565 11.7969 56.3778 11.5963 56.4898 11.3909C56.6111 11.1856 56.7091 10.9803 56.7838 10.7749C56.8211 10.6629 56.8678 10.5323 56.9238 10.3829C56.9891 10.2243 57.0638 10.0609 57.1478 9.89294C57.2411 9.72494 57.3438 9.55694 57.4558 9.38894C57.5771 9.2116 57.7171 9.04827 57.8758 8.89894C57.9971 8.89894 58.1278 8.91294 58.2678 8.94094C58.4078 8.96894 58.5385 9.00627 58.6598 9.05294C58.7905 9.09027 58.9025 9.13694 58.9958 9.19294C59.0891 9.2396 59.1591 9.29094 59.2058 9.34694C59.0378 9.7576 58.8511 10.1636 58.6458 10.5649C58.4405 10.9663 58.2491 11.3629 58.0718 11.7549C57.8945 12.1376 57.7451 12.5203 57.6238 12.9029C57.5025 13.2856 57.4418 13.6589 57.4418 14.0229C57.4418 14.2189 57.4558 14.3916 57.4838 14.5409C57.5211 14.6809 57.5585 14.8023 57.5958 14.9049C57.6331 14.9983 57.6658 15.0776 57.6938 15.1429C57.7311 15.2083 57.7498 15.2643 57.7498 15.3109C57.7498 15.3203 57.7405 15.3343 57.7218 15.3529C57.7125 15.3623 57.7031 15.3669 57.6938 15.3669C57.6285 15.3669 57.5445 15.3529 57.4418 15.3249C57.3391 15.2969 57.2225 15.2549 57.0918 15.1989C56.9705 15.1523 56.8445 15.0963 56.7138 15.0309C56.5925 14.9656 56.4758 14.8956 56.3638 14.8209ZM59.4894 12.6649C59.4894 12.1329 59.5968 11.6196 59.8114 11.1249C60.0354 10.6209 60.3248 10.1776 60.6794 9.79494C61.0434 9.40294 61.4541 9.09027 61.9114 8.85694C62.3781 8.61427 62.8588 8.49294 63.3534 8.49294C63.8388 8.49294 64.2121 8.61427 64.4734 8.85694C64.7348 9.0996 64.8654 9.44494 64.8654 9.89294C64.8654 10.1076 64.8328 10.3176 64.7674 10.5229C64.7114 10.7189 64.6321 10.8963 64.5294 11.0549C64.4361 11.2136 64.3241 11.3443 64.1934 11.4469C64.0628 11.5403 63.9321 11.5869 63.8014 11.5869C63.6894 11.5869 63.5728 11.5543 63.4514 11.4889C63.3394 11.4143 63.2461 11.3209 63.1714 11.2089C63.7968 10.6396 64.1094 10.1216 64.1094 9.65494C64.1094 9.38427 64.0021 9.24894 63.7874 9.24894C63.6008 9.24894 63.3674 9.3376 63.0874 9.51494C62.8074 9.69227 62.5368 9.9256 62.2754 10.2149C61.8741 10.6629 61.5661 11.1623 61.3514 11.7129C61.1461 12.2543 61.0434 12.8236 61.0434 13.4209C61.0434 14.1769 61.2114 14.6296 61.5474 14.7789C61.6874 14.7603 61.8508 14.7183 62.0374 14.6529C62.2241 14.5876 62.4248 14.5036 62.6394 14.4009C62.8541 14.2889 63.0734 14.1629 63.2974 14.0229C63.5308 13.8829 63.7548 13.7336 63.9694 13.5749C64.0068 13.6029 64.0394 13.6449 64.0674 13.7009C64.0954 13.7569 64.1094 13.8083 64.1094 13.8549C63.9508 14.0509 63.7688 14.2423 63.5634 14.4289C63.3581 14.6156 63.1434 14.7883 62.9194 14.9469C62.6954 15.0963 62.4761 15.2223 62.2614 15.3249C62.0561 15.4369 61.8741 15.5069 61.7154 15.5349C61.4074 15.5069 61.1181 15.4089 60.8474 15.2409C60.5768 15.0823 60.3388 14.8723 60.1334 14.6109C59.9374 14.3496 59.7788 14.0509 59.6574 13.7149C59.5454 13.3789 59.4894 13.0289 59.4894 12.6649ZM65.3123 13.8129C65.3123 13.4769 65.3963 13.0103 65.5643 12.4129C65.7417 11.8156 65.9703 11.1623 66.2503 10.4529C66.5303 9.7436 66.8477 9.01094 67.2023 8.25494C67.557 7.49894 67.9117 6.79427 68.2663 6.14094C68.6303 5.4876 68.9757 4.92294 69.3023 4.44694C69.6383 3.97094 69.923 3.64894 70.1563 3.48094C70.287 3.49027 70.427 3.54627 70.5763 3.64894C70.735 3.7516 70.8797 3.8776 71.0103 4.02694C71.141 4.16694 71.2483 4.31627 71.3323 4.47494C71.4257 4.6336 71.4723 4.77827 71.4723 4.90894C71.0523 5.24494 70.623 5.67894 70.1843 6.21094C69.755 6.7336 69.3443 7.31227 68.9523 7.94694C68.5603 8.57227 68.1963 9.2396 67.8603 9.94894C67.5337 10.6489 67.2583 11.3396 67.0343 12.0209C67.333 11.5076 67.6457 11.0409 67.9723 10.6209C68.299 10.2009 68.6257 9.8416 68.9523 9.54294C69.279 9.24427 69.5963 9.0156 69.9043 8.85694C70.2217 8.68894 70.5203 8.60027 70.8003 8.59094C71.211 8.8896 71.4163 9.28627 71.4163 9.78094C71.4163 10.0796 71.3557 10.3829 71.2343 10.6909C71.113 10.9896 70.9497 11.2696 70.7443 11.5309C70.5483 11.7829 70.3197 12.0023 70.0583 12.1889C69.8063 12.3663 69.5403 12.4829 69.2603 12.5389C69.3537 12.8656 69.4703 13.1969 69.6103 13.5329C69.7597 13.8689 69.9323 14.1956 70.1283 14.5129C70.3337 14.8303 70.5623 15.1243 70.8143 15.3949C71.0757 15.6656 71.3697 15.8943 71.6963 16.0809C71.6497 16.1743 71.5797 16.2676 71.4863 16.3609C71.393 16.4543 71.281 16.5336 71.1503 16.5989C71.0197 16.6736 70.875 16.7296 70.7163 16.7669C70.567 16.8136 70.4177 16.8369 70.2683 16.8369C70.0163 16.8369 69.7783 16.7109 69.5543 16.4589C69.3397 16.2069 69.1437 15.8429 68.9663 15.3669C68.8263 14.9843 68.691 14.5269 68.5603 13.9949C68.4297 13.4629 68.313 12.9076 68.2103 12.3289C68.341 12.2449 68.5043 12.1236 68.7003 11.9649C68.8963 11.7969 69.1017 11.6056 69.3163 11.3909C70.1377 10.5976 70.5483 9.9116 70.5483 9.33294C70.5483 9.25827 70.497 9.22094 70.3943 9.22094C70.2077 9.23027 69.9883 9.31894 69.7363 9.48694C69.4843 9.65494 69.2137 9.88827 68.9243 10.1869C68.6443 10.4856 68.355 10.8356 68.0563 11.2369C67.767 11.6383 67.487 12.0723 67.2163 12.5389C67.1043 12.7256 67.0017 12.9403 66.9083 13.1829C66.815 13.4256 66.731 13.6776 66.6563 13.9389C66.591 14.1909 66.5397 14.4429 66.5023 14.6949C66.465 14.9469 66.4463 15.1803 66.4463 15.3949C66.4463 15.5256 66.4603 15.6329 66.4883 15.7169C66.199 15.6889 66.0217 15.6143 65.9563 15.4929C65.8817 15.3809 65.8163 15.2876 65.7603 15.2129C65.7137 15.1476 65.6623 15.0916 65.6063 15.0449C65.5223 14.9796 65.4523 14.8396 65.3963 14.6249C65.3403 14.4103 65.3123 14.1396 65.3123 13.8129ZM77.4936 12.9589C77.279 13.6403 77.0643 14.2609 76.8496 14.8209C76.635 15.3809 76.4063 15.8943 76.1636 16.3609C75.921 16.8369 75.6596 17.2709 75.3796 17.6629C75.0996 18.0643 74.7916 18.4423 74.4556 18.7969C74.0263 19.2449 73.583 19.5856 73.1256 19.8189C72.6683 20.0616 72.211 20.1829 71.7536 20.1829C71.5203 20.1829 71.287 20.1549 71.0536 20.0989C70.8296 20.0523 70.6196 19.9823 70.4236 19.8889C70.2183 19.8049 70.041 19.7023 69.8916 19.5809C69.733 19.4689 69.621 19.3476 69.5556 19.2169C69.5556 19.1049 69.621 19.0069 69.7516 18.9229C69.8636 19.0256 69.957 19.1049 70.0316 19.1609C70.1063 19.2169 70.181 19.2636 70.2556 19.3009C70.321 19.3383 70.3956 19.3616 70.4796 19.3709C70.5543 19.3803 70.643 19.3849 70.7456 19.3849C71.2776 19.3849 71.7956 19.2263 72.2996 18.9089C72.813 18.6009 73.2936 18.1576 73.7416 17.5789C74.199 17.0096 74.6143 16.3143 74.9876 15.4929C75.361 14.6809 75.6783 13.7709 75.9396 12.7629C75.8183 12.9496 75.669 13.1783 75.4916 13.4489C75.3143 13.7196 75.1183 13.9903 74.9036 14.2609C74.689 14.5223 74.465 14.7603 74.2316 14.9749C74.0076 15.1896 73.7883 15.3343 73.5736 15.4089C73.4243 15.3996 73.2656 15.3669 73.0976 15.3109C72.939 15.2643 72.785 15.1943 72.6356 15.1009C72.4956 15.0076 72.3696 14.8956 72.2576 14.7649C72.1456 14.6343 72.071 14.4849 72.0336 14.3169C72.0336 14.0463 72.043 13.8316 72.0616 13.6729C72.0803 13.5049 72.113 13.3229 72.1596 13.1269C72.2436 12.7723 72.365 12.3709 72.5236 11.9229C72.6916 11.4749 72.883 11.0363 73.0976 10.6069C73.3216 10.1683 73.5643 9.76227 73.8256 9.38894C74.0963 9.00627 74.3763 8.7076 74.6656 8.49294C74.7403 8.49294 74.8336 8.50227 74.9456 8.52094C75.0576 8.53027 75.1743 8.5536 75.2956 8.59094C75.417 8.62827 75.5336 8.67494 75.6456 8.73094C75.7576 8.7776 75.8556 8.84294 75.9396 8.92694C75.837 9.02027 75.613 9.33294 75.2676 9.86494C74.9223 10.3969 74.5396 11.1623 74.1196 12.1609C74.073 12.2636 74.017 12.4129 73.9516 12.6089C73.8863 12.8049 73.821 13.0103 73.7556 13.2249C73.6996 13.4396 73.6483 13.6496 73.6016 13.8549C73.555 14.0603 73.5316 14.2236 73.5316 14.3449C73.5316 14.4196 73.541 14.4756 73.5596 14.5129C73.5876 14.5503 73.611 14.5783 73.6296 14.5969C73.7976 14.5689 74.0216 14.4336 74.3016 14.1909C74.5816 13.9389 74.899 13.5516 75.2536 13.0289C75.4776 12.6929 75.683 12.3616 75.8696 12.0349C76.0563 11.6989 76.2383 11.3629 76.4156 11.0269C76.6023 10.6909 76.7936 10.3456 76.9896 9.99094C77.1856 9.63627 77.3956 9.27227 77.6196 8.89894C77.741 8.89894 77.8716 8.91294 78.0116 8.94094C78.1516 8.96894 78.287 9.00627 78.4176 9.05294C78.5483 9.09027 78.6603 9.13694 78.7536 9.19294C78.8563 9.2396 78.931 9.29094 78.9776 9.34694C78.6883 9.96294 78.4176 10.5649 78.1656 11.1529C77.9136 11.7409 77.6896 12.3429 77.4936 12.9589ZM83.0452 12.3849C83.0452 11.7316 83.1199 11.0923 83.2692 10.4669C83.4279 9.83227 83.6472 9.23494 83.9272 8.67494C84.2072 8.1056 84.5385 7.5876 84.9212 7.12094C85.3132 6.64494 85.7379 6.23427 86.1952 5.88894C86.6619 5.5436 87.1565 5.2776 87.6792 5.09094C88.2019 4.89494 88.7385 4.79694 89.2892 4.79694C89.9332 4.79694 90.4325 4.93227 90.7872 5.20294C91.1512 5.4736 91.3332 5.8516 91.3332 6.33694C91.3332 6.5236 91.3052 6.71494 91.2492 6.91094C91.2025 7.10694 91.1279 7.30294 91.0252 7.49894C90.9319 7.6856 90.8199 7.8676 90.6892 8.04494C90.5585 8.22227 90.4139 8.37627 90.2552 8.50694C90.0125 8.4696 89.8025 8.36227 89.6252 8.18494C89.4479 7.99827 89.3359 7.7836 89.2892 7.54094C89.6159 7.27027 89.8725 6.99027 90.0592 6.70094C90.2552 6.40227 90.3532 6.1316 90.3532 5.88894C90.3532 5.47827 90.0965 5.27294 89.5832 5.27294C89.3685 5.27294 89.1445 5.3196 88.9112 5.41294C88.6872 5.49694 88.4585 5.61827 88.2252 5.77694C87.9919 5.9356 87.7632 6.12694 87.5392 6.35094C87.3245 6.57494 87.1239 6.82227 86.9372 7.09294C85.6399 8.9596 84.9912 10.8683 84.9912 12.8189C84.9912 13.5096 85.0985 14.0649 85.3132 14.4849C85.5279 14.9049 85.8125 15.1523 86.1672 15.2269C86.5685 15.1336 87.0772 14.8769 87.6932 14.4569C88.3092 14.0369 88.9812 13.4909 89.7092 12.8189C89.8025 12.9123 89.8585 13.0103 89.8772 13.1129C89.6065 13.4676 89.3265 13.8083 89.0372 14.1349C88.7479 14.4616 88.4585 14.7603 88.1692 15.0309C87.8892 15.3016 87.6092 15.5396 87.3292 15.7449C87.0585 15.9503 86.8065 16.1089 86.5732 16.2209C85.4159 16.2023 84.5385 15.8709 83.9412 15.2269C83.3439 14.5829 83.0452 13.6356 83.0452 12.3849ZM95.6944 9.47294C95.7877 9.47294 95.8951 9.4916 96.0164 9.52894C96.1471 9.55694 96.2637 9.59894 96.3664 9.65494C96.4691 9.7016 96.5531 9.75294 96.6184 9.80894C96.6931 9.86494 96.7304 9.91627 96.7304 9.96294C96.5437 10.3549 96.3711 10.7516 96.2124 11.1529C96.0537 11.5449 95.9184 11.9229 95.8064 12.2869C95.6944 12.6509 95.6057 12.9916 95.5404 13.3089C95.4844 13.6263 95.4564 13.9016 95.4564 14.1349C95.4564 14.3963 95.4844 14.6156 95.5404 14.7929C95.5964 14.9609 95.6897 15.0823 95.8204 15.1569C95.7084 15.2316 95.5637 15.2923 95.3864 15.3389C95.2091 15.3856 95.0504 15.4089 94.9104 15.4089C94.4064 15.4089 94.1544 15.0636 94.1544 14.3729C94.1544 13.8409 94.3317 13.1129 94.6864 12.1889C94.4997 12.6183 94.2851 13.0243 94.0424 13.4069C93.7997 13.7803 93.5524 14.1116 93.3004 14.4009C93.0484 14.6903 92.7917 14.9283 92.5304 15.1149C92.2784 15.2923 92.0451 15.3996 91.8304 15.4369C91.4851 15.4183 91.2051 15.2549 90.9904 14.9469C90.7757 14.6296 90.6684 14.2283 90.6684 13.7429C90.6684 13.2203 90.7804 12.6696 91.0044 12.0909C91.2284 11.5123 91.5131 10.9756 91.8584 10.4809C92.2131 9.98627 92.5957 9.5756 93.0064 9.24894C93.4171 8.91294 93.8137 8.7356 94.1964 8.71694C94.2897 8.74494 94.3924 8.80094 94.5044 8.88494C94.6257 8.96894 94.7377 9.06694 94.8404 9.17894C94.9524 9.29094 95.0457 9.4076 95.1204 9.52894C95.1951 9.64094 95.2371 9.73894 95.2464 9.82294C94.8731 9.87894 94.4857 10.0609 94.0844 10.3689C93.6924 10.6769 93.3331 11.0503 93.0064 11.4889C92.6891 11.9183 92.4277 12.3803 92.2224 12.8749C92.0171 13.3696 91.9144 13.8316 91.9144 14.2609C91.9144 14.4383 91.9797 14.5503 92.1104 14.5969C92.3811 14.5409 92.6937 14.3123 93.0484 13.9109C93.4031 13.5003 93.8324 12.8703 94.3364 12.0209C94.4297 11.8529 94.5324 11.6663 94.6444 11.4609C94.7657 11.2556 94.8871 11.0409 95.0084 10.8169C95.1297 10.5929 95.2464 10.3689 95.3584 10.1449C95.4797 9.9116 95.5917 9.6876 95.6944 9.47294ZM97.4686 13.8129C97.4686 13.4769 97.5526 13.0103 97.7206 12.4129C97.8979 11.8156 98.1266 11.1623 98.4066 10.4529C98.6866 9.7436 99.0039 9.01094 99.3586 8.25494C99.7132 7.49894 100.068 6.79427 100.423 6.14094C100.787 5.4876 101.132 4.92294 101.459 4.44694C101.795 3.97094 102.079 3.64894 102.313 3.48094C102.443 3.49027 102.583 3.54627 102.733 3.64894C102.891 3.7516 103.036 3.8776 103.167 4.02694C103.297 4.16694 103.405 4.31627 103.489 4.47494C103.582 4.6336 103.629 4.77827 103.629 4.90894C103.209 5.24494 102.779 5.67894 102.341 6.21094C101.911 6.7336 101.501 7.31227 101.109 7.94694C100.717 8.57227 100.353 9.2396 100.017 9.94894C99.6899 10.6489 99.4146 11.3396 99.1906 12.0209C99.4892 11.5076 99.8019 11.0409 100.129 10.6209C100.455 10.2009 100.782 9.8416 101.109 9.54294C101.435 9.24427 101.753 9.0156 102.061 8.85694C102.378 8.68894 102.677 8.60027 102.957 8.59094C103.367 8.8896 103.573 9.28627 103.573 9.78094C103.573 10.0796 103.512 10.3829 103.391 10.6909C103.269 10.9896 103.106 11.2696 102.901 11.5309C102.705 11.7829 102.476 12.0023 102.215 12.1889C101.963 12.3663 101.697 12.4829 101.417 12.5389C101.51 12.8656 101.627 13.1969 101.767 13.5329C101.916 13.8689 102.089 14.1956 102.285 14.5129C102.49 14.8303 102.719 15.1243 102.971 15.3949C103.232 15.6656 103.526 15.8943 103.853 16.0809C103.806 16.1743 103.736 16.2676 103.643 16.3609C103.549 16.4543 103.437 16.5336 103.307 16.5989C103.176 16.6736 103.031 16.7296 102.873 16.7669C102.723 16.8136 102.574 16.8369 102.425 16.8369C102.173 16.8369 101.935 16.7109 101.711 16.4589C101.496 16.2069 101.3 15.8429 101.123 15.3669C100.983 14.9843 100.847 14.5269 100.717 13.9949C100.586 13.4629 100.469 12.9076 100.367 12.3289C100.497 12.2449 100.661 12.1236 100.857 11.9649C101.053 11.7969 101.258 11.6056 101.473 11.3909C102.294 10.5976 102.705 9.9116 102.705 9.33294C102.705 9.25827 102.653 9.22094 102.551 9.22094C102.364 9.23027 102.145 9.31894 101.893 9.48694C101.641 9.65494 101.37 9.88827 101.081 10.1869C100.801 10.4856 100.511 10.8356 100.213 11.2369C99.9232 11.6383 99.6432 12.0723 99.3726 12.5389C99.2606 12.7256 99.1579 12.9403 99.0646 13.1829C98.9712 13.4256 98.8872 13.6776 98.8126 13.9389C98.7472 14.1909 98.6959 14.4429 98.6586 14.6949C98.6212 14.9469 98.6026 15.1803 98.6026 15.3949C98.6026 15.5256 98.6166 15.6329 98.6446 15.7169C98.3552 15.6889 98.1779 15.6143 98.1126 15.4929C98.0379 15.3809 97.9726 15.2876 97.9166 15.2129C97.8699 15.1476 97.8186 15.0916 97.7626 15.0449C97.6786 14.9796 97.6086 14.8396 97.5526 14.6249C97.4966 14.4103 97.4686 14.1396 97.4686 13.8129ZM109.33 9.33294C109.292 9.9116 109.19 10.4109 109.022 10.8309C108.854 11.2416 108.611 11.6056 108.294 11.9229C107.986 12.2309 107.608 12.5109 107.16 12.7629C106.712 13.0149 106.189 13.2576 105.592 13.4909C105.592 13.5469 105.587 13.6076 105.578 13.6729C105.578 13.7289 105.578 13.7896 105.578 13.8549C105.578 13.9763 105.587 14.1023 105.606 14.2329C105.624 14.3636 105.657 14.4849 105.704 14.5969C105.75 14.7089 105.816 14.8023 105.9 14.8769C105.984 14.9423 106.091 14.9749 106.222 14.9749C106.474 14.9749 106.721 14.9189 106.964 14.8069C107.206 14.6949 107.435 14.5596 107.65 14.4009C107.874 14.2329 108.079 14.0556 108.266 13.8689C108.462 13.6729 108.634 13.4956 108.784 13.3369C108.877 13.4209 108.956 13.5003 109.022 13.5749C108.602 14.1349 108.14 14.6016 107.636 14.9749C107.141 15.3389 106.67 15.5723 106.222 15.6749C105.578 15.6003 105.074 15.3669 104.71 14.9749C104.355 14.5736 104.178 14.0929 104.178 13.5329C104.178 13.1503 104.229 12.7629 104.332 12.3709C104.444 11.9696 104.593 11.5869 104.78 11.2229C104.976 10.8496 105.2 10.4996 105.452 10.1729C105.713 9.84627 105.988 9.5616 106.278 9.31894C106.576 9.07627 106.88 8.88494 107.188 8.74494C107.505 8.60494 107.818 8.53494 108.126 8.53494C108.555 8.59094 108.956 8.85694 109.33 9.33294ZM108.364 9.79494C108.112 9.83227 107.85 9.93494 107.58 10.1029C107.309 10.2709 107.052 10.4949 106.81 10.7749C106.576 11.0549 106.362 11.3816 106.166 11.7549C105.97 12.1283 105.816 12.5296 105.704 12.9589C106.45 12.5856 107.071 12.1283 107.566 11.5869C108.06 11.0363 108.326 10.4389 108.364 9.79494Z" fill="#EA5242"/>
<path d="M51.5747 25.4969H48.6227V33.1289H47.7467V25.4969H44.7947V24.7289H51.5747V25.4969ZM54.8771 33.1889C54.2691 33.1889 53.7211 33.0529 53.2331 32.7809C52.7451 32.5009 52.3611 32.1169 52.0811 31.6289C51.8011 31.1409 51.6611 30.5889 51.6611 29.9729C51.6611 29.3569 51.8011 28.8049 52.0811 28.3169C52.3611 27.8289 52.7451 27.4489 53.2331 27.1769C53.7211 26.9049 54.2691 26.7689 54.8771 26.7689C55.4851 26.7689 56.0331 26.9049 56.5211 27.1769C57.0091 27.4489 57.3891 27.8289 57.6611 28.3169C57.9411 28.8049 58.0811 29.3569 58.0811 29.9729C58.0811 30.5889 57.9411 31.1409 57.6611 31.6289C57.3891 32.1169 57.0091 32.5009 56.5211 32.7809C56.0331 33.0529 55.4851 33.1889 54.8771 33.1889ZM54.8771 32.4329C55.3251 32.4329 55.7251 32.3329 56.0771 32.1329C56.4371 31.9249 56.7171 31.6329 56.9171 31.2569C57.1171 30.8809 57.2171 30.4529 57.2171 29.9729C57.2171 29.4929 57.1171 29.0649 56.9171 28.6889C56.7171 28.3129 56.4371 28.0249 56.0771 27.8249C55.7251 27.6169 55.3251 27.5129 54.8771 27.5129C54.4291 27.5129 54.0251 27.6169 53.6651 27.8249C53.3131 28.0249 53.0331 28.3129 52.8251 28.6889C52.6251 29.0649 52.5251 29.4929 52.5251 29.9729C52.5251 30.4529 52.6251 30.8809 52.8251 31.2569C53.0331 31.6329 53.3131 31.9249 53.6651 32.1329C54.0251 32.3329 54.4291 32.4329 54.8771 32.4329ZM63.154 26.7689C63.746 26.7689 64.282 26.9049 64.762 27.1769C65.242 27.4409 65.618 27.8169 65.89 28.3049C66.162 28.7929 66.298 29.3489 66.298 29.9729C66.298 30.6049 66.162 31.1649 65.89 31.6529C65.618 32.1409 65.242 32.5209 64.762 32.7929C64.29 33.0569 63.754 33.1889 63.154 33.1889C62.642 33.1889 62.178 33.0849 61.762 32.8769C61.354 32.6609 61.018 32.3489 60.754 31.9409V35.4569H59.902V26.8169H60.718V28.0649C60.974 27.6489 61.31 27.3289 61.726 27.1049C62.15 26.8809 62.626 26.7689 63.154 26.7689ZM63.094 32.4329C63.534 32.4329 63.934 32.3329 64.294 32.1329C64.654 31.9249 64.934 31.6329 65.134 31.2569C65.342 30.8809 65.446 30.4529 65.446 29.9729C65.446 29.4929 65.342 29.0689 65.134 28.7009C64.934 28.3249 64.654 28.0329 64.294 27.8249C63.934 27.6169 63.534 27.5129 63.094 27.5129C62.646 27.5129 62.242 27.6169 61.882 27.8249C61.53 28.0329 61.25 28.3249 61.042 28.7009C60.842 29.0689 60.742 29.4929 60.742 29.9729C60.742 30.4529 60.842 30.8809 61.042 31.2569C61.25 31.6329 61.53 31.9249 61.882 32.1329C62.242 32.3329 62.646 32.4329 63.094 32.4329ZM72.3342 27.5729H69.9462V33.1289H69.0942V27.5729H66.7062V26.8169H72.3342V27.5729ZM76.2181 29.0489C77.0101 29.0569 77.6141 29.2329 78.0301 29.5769C78.4461 29.9209 78.6541 30.4169 78.6541 31.0649C78.6541 31.7369 78.4301 32.2529 77.9821 32.6129C77.5341 32.9729 76.8941 33.1489 76.0621 33.1409L73.5661 33.1289V26.8169H74.4181V29.0249L76.2181 29.0489ZM79.7101 26.8169H80.5621V33.1289H79.7101V26.8169ZM76.0141 32.4929C76.5981 32.5009 77.0381 32.3849 77.3341 32.1449C77.6381 31.8969 77.7901 31.5369 77.7901 31.0649C77.7901 30.6009 77.6421 30.2569 77.3461 30.0329C77.0501 29.8089 76.6061 29.6929 76.0141 29.6849L74.4181 29.6609V32.4689L76.0141 32.4929ZM86.1286 26.8169H86.9806V29.6129H90.9526V26.8169H91.8046V33.1289H90.9526V30.3449H86.9806V33.1289H86.1286V26.8169ZM96.3982 26.7689C97.2222 26.7689 97.8542 26.9769 98.2942 27.3929C98.7342 27.8009 98.9542 28.4089 98.9542 29.2169V33.1289H98.1382V32.1449C97.9462 32.4729 97.6622 32.7289 97.2862 32.9129C96.9182 33.0969 96.4782 33.1889 95.9662 33.1889C95.2622 33.1889 94.7022 33.0209 94.2862 32.6849C93.8702 32.3489 93.6622 31.9049 93.6622 31.3529C93.6622 30.8169 93.8542 30.3849 94.2382 30.0569C94.6302 29.7289 95.2502 29.5649 96.0982 29.5649H98.1022V29.1809C98.1022 28.6369 97.9502 28.2249 97.6462 27.9449C97.3422 27.6569 96.8982 27.5129 96.3142 27.5129C95.9142 27.5129 95.5302 27.5809 95.1622 27.7169C94.7942 27.8449 94.4782 28.0249 94.2142 28.2569L93.8302 27.6209C94.1502 27.3489 94.5342 27.1409 94.9822 26.9969C95.4302 26.8449 95.9022 26.7689 96.3982 26.7689ZM96.0982 32.5169C96.5782 32.5169 96.9902 32.4089 97.3342 32.1929C97.6782 31.9689 97.9342 31.6489 98.1022 31.2329V30.2009H96.1222C95.0422 30.2009 94.5022 30.5769 94.5022 31.3289C94.5022 31.6969 94.6422 31.9889 94.9222 32.2049C95.2022 32.4129 95.5942 32.5169 96.0982 32.5169ZM107.435 29.8409C107.883 29.9449 108.227 30.1249 108.467 30.3809C108.715 30.6369 108.839 30.9489 108.839 31.3169C108.839 31.6849 108.711 32.0129 108.455 32.3009C108.207 32.5889 107.867 32.8129 107.435 32.9729C107.003 33.1249 106.527 33.2009 106.007 33.2009C105.551 33.2009 105.103 33.1369 104.663 33.0089C104.223 32.8729 103.839 32.6769 103.511 32.4209L103.799 31.7849C104.087 32.0009 104.423 32.1689 104.807 32.2889C105.191 32.4089 105.579 32.4689 105.971 32.4689C106.555 32.4689 107.031 32.3609 107.399 32.1449C107.775 31.9209 107.963 31.6209 107.963 31.2449C107.963 30.9089 107.811 30.6489 107.507 30.4649C107.203 30.2729 106.787 30.1769 106.259 30.1769H105.179V29.5529H106.211C106.683 29.5529 107.063 29.4649 107.351 29.2889C107.639 29.1049 107.783 28.8609 107.783 28.5569C107.783 28.2209 107.619 27.9569 107.291 27.7649C106.971 27.5729 106.551 27.4769 106.031 27.4769C105.351 27.4769 104.679 27.6489 104.015 27.9929L103.775 27.3329C104.527 26.9409 105.307 26.7449 106.115 26.7449C106.595 26.7449 107.027 26.8169 107.411 26.9609C107.803 27.0969 108.107 27.2929 108.323 27.5489C108.547 27.8049 108.659 28.1009 108.659 28.4369C108.659 28.7569 108.547 29.0409 108.323 29.2889C108.107 29.5369 107.811 29.7209 107.435 29.8409ZM112.945 26.7689C113.769 26.7689 114.401 26.9769 114.841 27.3929C115.281 27.8009 115.501 28.4089 115.501 29.2169V33.1289H114.685V32.1449C114.493 32.4729 114.209 32.7289 113.833 32.9129C113.465 33.0969 113.025 33.1889 112.513 33.1889C111.809 33.1889 111.249 33.0209 110.833 32.6849C110.417 32.3489 110.209 31.9049 110.209 31.3529C110.209 30.8169 110.401 30.3849 110.785 30.0569C111.177 29.7289 111.797 29.5649 112.645 29.5649H114.649V29.1809C114.649 28.6369 114.497 28.2249 114.193 27.9449C113.889 27.6569 113.445 27.5129 112.861 27.5129C112.461 27.5129 112.077 27.5809 111.709 27.7169C111.341 27.8449 111.025 28.0249 110.761 28.2569L110.377 27.6209C110.697 27.3489 111.081 27.1409 111.529 26.9969C111.977 26.8449 112.449 26.7689 112.945 26.7689ZM112.645 32.5169C113.125 32.5169 113.537 32.4089 113.881 32.1929C114.225 31.9689 114.481 31.6489 114.649 31.2329V30.2009H112.669C111.589 30.2009 111.049 30.5769 111.049 31.3289C111.049 31.6969 111.189 31.9889 111.469 32.2049C111.749 32.4129 112.141 32.5169 112.645 32.5169ZM120.061 30.3209H118.621V33.1289H117.769V26.8169H118.621V29.5889H120.073L122.293 26.8169H123.217L120.733 29.8769L123.397 33.1289H122.389L120.061 30.3209ZM126.797 26.7689C127.621 26.7689 128.253 26.9769 128.693 27.3929C129.133 27.8009 129.353 28.4089 129.353 29.2169V33.1289H128.537V32.1449C128.345 32.4729 128.061 32.7289 127.685 32.9129C127.317 33.0969 126.877 33.1889 126.365 33.1889C125.661 33.1889 125.101 33.0209 124.685 32.6849C124.269 32.3489 124.061 31.9049 124.061 31.3529C124.061 30.8169 124.253 30.3849 124.637 30.0569C125.029 29.7289 125.649 29.5649 126.497 29.5649H128.501V29.1809C128.501 28.6369 128.349 28.2249 128.045 27.9449C127.741 27.6569 127.297 27.5129 126.713 27.5129C126.313 27.5129 125.929 27.5809 125.561 27.7169C125.193 27.8449 124.877 28.0249 124.613 28.2569L124.229 27.6209C124.549 27.3489 124.933 27.1409 125.381 26.9969C125.829 26.8449 126.301 26.7689 126.797 26.7689ZM126.497 32.5169C126.977 32.5169 127.389 32.4089 127.733 32.1929C128.077 31.9689 128.333 31.6489 128.501 31.2329V30.2009H126.521C125.441 30.2009 124.901 30.5769 124.901 31.3289C124.901 31.6969 125.041 31.9889 125.321 32.2049C125.601 32.4129 125.993 32.5169 126.497 32.5169ZM134.564 29.8409C135.012 29.9449 135.356 30.1249 135.596 30.3809C135.844 30.6369 135.968 30.9489 135.968 31.3169C135.968 31.6849 135.84 32.0129 135.584 32.3009C135.336 32.5889 134.996 32.8129 134.564 32.9729C134.132 33.1249 133.656 33.2009 133.136 33.2009C132.68 33.2009 132.232 33.1369 131.792 33.0089C131.352 32.8729 130.968 32.6769 130.64 32.4209L130.928 31.7849C131.216 32.0009 131.552 32.1689 131.936 32.2889C132.32 32.4089 132.708 32.4689 133.1 32.4689C133.684 32.4689 134.16 32.3609 134.528 32.1449C134.904 31.9209 135.092 31.6209 135.092 31.2449C135.092 30.9089 134.94 30.6489 134.636 30.4649C134.332 30.2729 133.916 30.1769 133.388 30.1769H132.308V29.5529H133.34C133.812 29.5529 134.192 29.4649 134.48 29.2889C134.768 29.1049 134.912 28.8609 134.912 28.5569C134.912 28.2209 134.748 27.9569 134.42 27.7649C134.1 27.5729 133.68 27.4769 133.16 27.4769C132.48 27.4769 131.808 27.6489 131.144 27.9929L130.904 27.3329C131.656 26.9409 132.436 26.7449 133.244 26.7449C133.724 26.7449 134.156 26.8169 134.54 26.9609C134.932 27.0969 135.236 27.2929 135.452 27.5489C135.676 27.8049 135.788 28.1009 135.788 28.4369C135.788 28.7569 135.676 29.0409 135.452 29.2889C135.236 29.5369 134.94 29.7209 134.564 29.8409Z" fill="black"/>
<g clip-path="url(#clip0)">
<path d="M1.24527 16.6686H30.7368V29.8889C30.7368 31.574 29.371 32.9397 27.6859 32.9397H1.24527V16.6686Z" fill="#F0DBC2"/>
<path d="M1.24527 19.7194H26.1605C27.003 19.7194 27.6859 20.4023 27.6859 21.2448V28.3635C27.6859 29.206 27.003 29.8889 26.1605 29.8889H1.24527V19.7194Z" fill="#F2B9B8"/>
<path d="M1.24527 19.7194H26.1605C27.003 19.7194 27.6859 20.4023 27.6859 21.2448V28.3635C27.6859 29.206 27.003 29.8889 26.1605 29.8889H1.24527V19.7194Z" fill="#F2B9B8"/>
<path d="M1.24527 16.6685L19.0419 5.9906C25.0958 5.99159 30.1571 10.5938 30.7322 16.6203L30.7368 16.6685H1.24527Z" fill="#F29C9B"/>
<path d="M24.6351 11.5838C26.32 11.5838 27.6859 10.2179 27.6859 8.53298C27.6859 6.84804 26.32 5.48212 24.6351 5.48212C22.9501 5.48212 21.5842 6.84804 21.5842 8.53298C21.5842 10.2179 22.9501 11.5838 24.6351 11.5838Z" fill="#F0614A"/>
<path d="M26.1534 5.88888C26.0802 8.15669 24.2588 9.97802 21.991 10.0513C22.827 11.5142 24.6905 12.0226 26.1534 11.1872C27.6163 10.3513 28.1247 8.48775 27.2894 7.02484C27.0188 6.55146 26.6268 6.15941 26.1534 5.88888Z" fill="#EA5242"/>
<path d="M25.1435 7.51603H24.1266C24.1297 4.98994 26.1768 2.94279 28.7029 2.93974V3.9567C26.7382 3.95875 25.1456 5.55127 25.1435 7.51603Z" fill="#965735"/>
<path d="M19.6993 9.90961L20.4184 9.19052L18.8929 7.66501L18.1738 8.3841L19.6993 9.90961Z" fill="#965735"/>
<path d="M13.3009 12.96L14.8264 11.4345L14.1073 10.7154L12.5818 12.2409L13.3009 12.96Z" fill="#965735"/>
<path d="M16.1401 14.9948L16.8592 14.2757L15.3337 12.7502L14.6146 13.4693L16.1401 14.9948Z" fill="#965735"/>
<path d="M17.8761 12.9616L19.4016 11.4361L18.6826 10.717L17.157 12.2425L17.8761 12.9616Z" fill="#965735"/>
<path d="M26.52 14.9939L28.0455 13.4684L27.3264 12.7493L25.8009 14.2748L26.52 14.9939Z" fill="#965735"/>
<path d="M20.927 14.9943L22.4525 13.4688L21.7334 12.7497L20.2079 14.2753L20.927 14.9943Z" fill="#965735"/>
<path d="M9.74039 14.9966L11.2659 13.4711L10.5468 12.752L9.0213 14.2775L9.74039 14.9966Z" fill="#965735"/>
<path d="M19.8981 19.7194H26.1605C27.003 19.7194 27.6859 20.4023 27.6859 21.2448V28.3635C27.6859 29.206 27.003 29.8889 26.1605 29.8889H8.12288L4.5905 32.9397H27.6859C29.371 32.9397 30.7368 31.574 30.7368 29.8889V16.6686H23.431L19.8981 19.7194Z" fill="#EBD3B7"/>
<path d="M26.1605 29.8889C27.003 29.8889 27.6859 29.206 27.6859 28.3635V21.2448C27.6859 20.4023 27.003 19.7194 26.1605 19.7194H19.8981L8.12288 29.8889H26.1605Z" fill="#F2AEAC"/>
<path d="M27.6859 24.2957H1.24527V25.3127H27.6859V24.2957Z" fill="#F28685"/>
</g>
<defs>
<clipPath id="clip0">
<rect width="30" height="30" fill="white" transform="translate(0.991028 2.93974)"/>
</clipPath>
</defs>
</svg>
