<svg width="26" height="27" viewBox="0 0 26 27" fill="none" xmlns="http://www.w3.org/2000/svg">
<g clip-path="url(#clip0)">
<path d="M24.351 9.68357H18.7443L14.803 1.78013C14.6617 1.49677 14.4228 1.2876 14.1302 1.19111C13.8375 1.09463 13.5264 1.12246 13.254 1.26942C13.1592 1.3205 13.0745 1.38368 13 1.45594C12.9255 1.38373 12.8407 1.3205 12.746 1.26942C12.4736 1.12246 12.1624 1.09468 11.8698 1.19111C11.5772 1.28755 11.3383 1.49677 11.197 1.78013L7.04258 10.1109C6.90127 10.3942 6.87451 10.7179 6.96729 11.0222C6.99893 11.126 7.04414 11.2228 7.09961 11.3118H1.64902C1.41929 11.3118 1.23242 11.1175 1.23242 10.8786C1.23242 10.6397 1.41934 10.4453 1.64902 10.4453H5.82407C6.02632 10.4453 6.19028 10.2748 6.19028 10.0644C6.19028 9.85409 6.02632 9.68357 5.82407 9.68357H1.64902C1.01548 9.68357 0.5 10.2197 0.5 10.8786C0.5 11.425 0.85459 11.8866 1.33696 12.0284L3.45801 23.7929C3.59448 24.5501 4.23125 25.0997 4.97207 25.0997H21.028C21.7688 25.0997 22.4055 24.5501 22.542 23.7929L24.6631 12.0283C25.1454 11.8866 25.5 11.425 25.5 10.8786C25.5 10.2196 24.9845 9.68357 24.351 9.68357ZM13.5912 1.94567C13.6899 1.8924 13.8028 1.8823 13.9088 1.91729C14.0149 1.95222 14.1016 2.02809 14.1528 2.13082L18.3072 10.4616C18.3584 10.5644 18.3681 10.6817 18.3345 10.792C18.3009 10.9024 18.2279 10.9925 18.1291 11.0457C18.0304 11.099 17.9175 11.1091 17.8114 11.0742C17.7053 11.0392 17.6187 10.9634 17.5675 10.8606L13.4131 2.52976C13.3074 2.3177 13.3873 2.05566 13.5912 1.94567ZM18.4677 12.0736L18.1212 15.7897H13.3662V12.0736H18.4677ZM13 3.35577L16.9174 11.2112C16.9347 11.246 16.9535 11.2795 16.9737 11.3118H9.02632C9.04648 11.2795 9.06533 11.246 9.08262 11.2113L9.4646 10.4453H15.0386C15.2408 10.4453 15.4048 10.2749 15.4048 10.0645C15.4048 9.85414 15.2408 9.68362 15.0386 9.68362H9.84443L13 3.35577ZM7.69277 10.4616L11.8472 2.13077C11.8984 2.02804 11.9851 1.95217 12.0912 1.91724C12.1327 1.90352 12.1752 1.89677 12.2175 1.89677C12.2834 1.89677 12.3487 1.91322 12.4088 1.94562C12.6127 2.05567 12.6926 2.31765 12.5869 2.52971L8.43242 10.8605C8.3812 10.9633 8.29458 11.0391 8.18848 11.0741C8.08247 11.109 7.96963 11.0989 7.8708 11.0456C7.77202 10.9924 7.69907 10.9023 7.66548 10.7919C7.63184 10.6817 7.64155 10.5644 7.69277 10.4616ZM2.09028 12.0736H6.79644L7.14297 15.7897H2.76025L2.09028 12.0736ZM2.89761 16.5513H7.21401L7.56055 20.2673H3.56753L2.89761 16.5513ZM4.97202 24.3381C4.58345 24.3381 4.24946 24.0498 4.17788 23.6526L3.70488 21.0291H7.63154L7.94014 24.3381H4.97202ZM12.6338 24.3381H8.67593L8.36738 21.0291H12.6338V24.3381ZM12.6338 20.2673H8.29634L7.9498 16.5513H12.6338V20.2673ZM12.6338 15.7897H7.87881L7.53228 12.0736H12.6338V15.7897ZM17.3241 24.3381H13.3662V21.0291H17.6326L17.3241 24.3381ZM17.7037 20.2674H13.3662V16.5514H18.0502L17.7037 20.2674ZM21.8221 23.6526C21.7505 24.0498 21.4165 24.3381 21.0279 24.3381H18.0599L18.3685 21.0291H22.2951L21.8221 23.6526ZM22.4325 20.2674H18.4395L18.786 16.5514H23.1024L22.4325 20.2674ZM23.2397 15.7896H18.8571L19.2036 12.0735H23.9097L23.2397 15.7896ZM24.351 11.3119H24.345C24.3448 11.3119 24.3446 11.3119 24.3443 11.3119H18.9004C18.9559 11.2228 19.001 11.1261 19.0327 11.0222C19.0905 10.8326 19.1019 10.6355 19.0681 10.4453H24.351C24.5807 10.4453 24.7676 10.6397 24.7676 10.8786C24.7676 11.1175 24.5807 11.3119 24.351 11.3119Z" fill="white"/>
</g>
<defs>
<clipPath id="clip0">
<rect width="25" height="26" fill="white" transform="translate(0.5 0.117188)"/>
</clipPath>
</defs>
</svg>
