<?xml version="1.0" encoding="utf-8"?>
<!-- Generator: Adobe Illustrator 24.1.0, SVG Export Plug-In . SVG Version: 6.00 Build 0)  -->
<svg version="1.1" id="OBJECTS" xmlns="http://www.w3.org/2000/svg" xmlns:xlink="http://www.w3.org/1999/xlink" x="0px" y="0px"
	 viewBox="0 0 750 500" style="enable-background:new 0 0 750 500;" xml:space="preserve">
<style type="text/css">
	.st0{fill:#E7F5FE;}
	.st1{fill:#26387A;}
	.st2{fill:#FFB288;}
	.st3{fill:none;stroke:#0061A6;stroke-width:0.5;stroke-miterlimit:10;}
	.st4{fill:#D9F0FF;}
	.st5{fill:none;stroke:#94C1F2;stroke-width:0.5;stroke-miterlimit:10;}
	.st6{fill:none;stroke:#B4E8FD;stroke-width:5;stroke-linecap:round;stroke-linejoin:round;stroke-miterlimit:10;}
	.st7{fill:#FDAE2B;}
	.st8{fill:#EF8417;}
	.st9{opacity:0.5;fill:#FDAE2B;}
	.st10{fill:#FFC840;}
	.st11{fill:#0061A6;}
	.st12{fill:#EF9467;}
	.st13{fill:#E2E8ED;}
	.st14{fill:#B6E9FE;}
	.st15{fill:#2858AD;}
	.st16{fill:none;stroke:#6CB1EF;stroke-width:0.5;stroke-miterlimit:10;}
</style>
<g>
	<g>
		<g>
			<path class="st0" d="M660.3,387.2c-3.8-7.3-19.2-13.1-26.1-14.4c-36.8-7.1-75.4-6.1-112.7-6c-40.6,0.1-79.4,6.7-119.7,9.7
				c-21,1.6-43.1-1.3-64.1-2c-34.6-1.2-69.2-2.6-103.7-4.2c-29.8-1.4-60.8,1.7-87,18.2c-3,1.9-6,4.1-7.4,7.5
				c-8.5,21.1,97.9,18.5,111.8,18.8c70,1.8,140,2.8,209.9,0.9c52-1.4,106.2-1.3,157.8-8.7c11.4-1.6,26.9-2.2,36.8-9
				C661.3,394.4,662.1,390.6,660.3,387.2z"/>
		</g>
		<g>
			<g>
				<g>
					<path class="st1" d="M421.6,397.8c0,0-9.8,4.2-9.8,6.3c0,1.2,13.5-0.5,14.3-1.3c1.3-1.3-0.5-4.8-0.5-4.8L421.6,397.8z"/>
					<path class="st2" d="M421,391.9l0.6,6.1c0,0,0.3,1,1.7,1.1c1.4,0.1,2.3-1.1,2.3-1.1l-0.5-7.6"/>
					<g>
						<path class="st1" d="M438.1,253c3.6,14.4,2.2,21.8-3,32.7c-3.2,36.6-5.4,73.1-9.7,108.8l-4.5,0.3
							c-10.3-34.8-19.7-86.8-18.5-134.3"/>
					</g>
					<g>
						<path class="st3" d="M435.9,257.9c1.3,3.4,1.6,7.1,1.5,10.7c-0.2,5.5-2.4,10.4-3.8,15.6c-1.9,6.9-2.1,13.8-2.6,20.9
							c-0.8,11.1-1.7,22.2-2.5,33.3c-1.4,18.1-2.8,36.3-4.2,54.4c0,0.5-0.1,1.1-0.1,1.6"/>
					</g>
				</g>
				<g>
					<path class="st1" d="M460.8,399.2c0,0-9.8,4.2-9.8,6.3c0,1.2,13.5-0.5,14.3-1.3c1.3-1.3-0.5-4.8-0.5-4.8L460.8,399.2z"/>
					<path class="st2" d="M460.1,393.3l0.6,6.1c0,0,0.3,1,1.7,1.1c1.4,0.1,2.3-1.1,2.3-1.1l-0.5-7.6"/>
					<g>
						<path class="st1" d="M470.8,251.7c4.5,14.2,3.7,21.6-0.8,32.8c-0.7,36.8-3.3,75.1-5.2,111.1h-4.6c-12.5-34-25.9-86.5-27.9-134
							"/>
					</g>
					<g>
						<path class="st3" d="M468.5,257.6c0,0,5.2,12.3-3.6,29.6c-1,16.3-1.5,108.4-1.5,108.4"/>
						<path class="st3" d="M455.6,261.5c0.9,1.4,2.3,2.4,3.8,3c1.5,0.6,3.2,0.9,4.8,1.1c1.9,0.2,3.9,0.4,5.8,0.3"/>
						<path class="st3" d="M456.2,263.8c1.7,1.5,3.8,2.5,6,3c2.2,0.5,4.5,0.6,6.7,0.6"/>
					</g>
				</g>
			</g>
			<g>
				<g>
					<path class="st2" d="M417.2,183.2c-15.6,27.3-32.4,52-42.4,81.8l-3-1.6c0.8-27.7,9.7-67.9,21.4-93"/>
				</g>
				<g>
					<path class="st4" d="M409.5,154.8c0,0-4.8,1.4-10.5,5.2c-5.3,3.6-9.4,8.9-12.1,14.7c-2.7,5.8-4.3,12.2-5.2,18.5
						c0,0,6.5,3.3,14,4.2c7.5,0.9,15.5,0,15.5,0"/>
				</g>
			</g>
			<g>
				<g>
					<path class="st4" d="M397.9,170.9c-1.7,29.5-0.4,59.8,0.4,88.5c0,0,10.2,2.7,35.2,2.7c24.8,0,41.1-7.6,41.1-7.6
						c-4.8-29.5-8.6-65.7-20.4-89.9c0,0-13.3-14.4-26.4-15c-2.6-0.1-5.3,0.8-7.8,2c-1.8,0.9-10.3,2.9-10.3,2.9L397.9,170.9z"/>
				</g>
				<path class="st5" d="M397.7,173.5c-0.7,5.7-0.7,23.2-0.7,23.2"/>
			</g>
			<g>
				<path class="st6" d="M422.5,268.7c41.6-4.6,59.1,48.3,68.5,68.8c22.4,48.5,106.9,43.1,145.4,43.1c50.4,0,72.6,17.1,49,26"/>
				<path class="st7" d="M436.9,271.1c0,21.5-16.2,34.4-30,34.4h-22.7v-68.9h22.7C420.7,236.6,436.9,249.6,436.9,271.1z"/>
				<path class="st8" d="M425.2,271.1c0,21-12.4,38-27.7,38h-25.1v-76h25.1C412.8,233.1,425.2,250.1,425.2,271.1z"/>
				<path class="st9" d="M430.7,250.3c-5.4,7.4-10.7,14.9-15.8,22.5c0.7-0.1,1.4-0.5,1.9-1c0,0.6-0.9,1.6-0.1,1.9
					c0.8,0.4,1.7-0.6,2.5-0.3c0.8-0.2,1.5-1.2,2.1-1.7c-0.3,0.6-0.3,1-0.4,1.3c5.5-2.2,10.5-7.3,14.8-11.5
					C434.7,257.3,432.9,253.6,430.7,250.3z"/>
				<ellipse class="st10" cx="374.2" cy="271.1" rx="27.7" ry="38"/>
				<g>
					<g>
						<path class="st8" d="M376.5,284.5c0,3.1-2.1,5.6-4.7,5.6s-4.7-2.5-4.7-5.6c0-3.1,2.1-5.6,4.7-5.6S376.5,281.4,376.5,284.5z"/>
					</g>
					<g>
						<path class="st8" d="M376.5,257.6c0,3.1-2.1,5.6-4.7,5.6s-4.7-2.5-4.7-5.6c0-3.1,2.1-5.6,4.7-5.6S376.5,254.5,376.5,257.6z"/>
					</g>
				</g>
			</g>
			<g>
				<g>
					<path class="st2" d="M461.6,192.6c0,0,1.8,17.9-6.2,32.9c-6.8,12.8-20.4,29.3-31.4,38.4l-2.6-0.6c3.8-14.7,15.9-40.8,16.6-50.6
						c0.8-9.8,0.6-21.1,0.8-26.6"/>
				</g>
				<path class="st4" d="M427.7,149.6c0,0,14.7,1,23.3,8.3c12.2,10.3,14,30.6,14,35.3c-3.7,4-11.7,4.2-17.6,4.2s-10.2-2.8-10.2-2.8
					l-1.2-22.3"/>
				<g>
					<path class="st2" d="M422.4,261.1c-1.7,0.2-3.3,1-4.7,2.1c-1.3,1-2.9,2.7-2.7,3.5c0.2,0.8,2.3-0.8,2.5-0.4
						c0.3,0.3-3.6,6.2-2.9,6.6c0.7,0.4,4-4.9,4-4.9s-3.2,5.7-2,5.8c1,0.1,3.9-5.3,3.9-5.3s-2.4,4.8-1.6,5c0.8,0.2,3.1-4.6,3.1-4.6
						s-1.8,4.1-1.1,4.2c0.4,0,2.1-2,2.9-4.5c0.7-2.4,1.6-4.5,0.9-6.4"/>
				</g>
				<line class="st5" x1="437.8" y1="174.6" x2="437.8" y2="194.9"/>
			</g>
			<g>
				<g>
					<path class="st1" d="M397.1,130.9c-0.1,0.9-0.1,1.8-0.1,2.7c0,1.9,0.3,3.9,1.4,5.5c0.8,1.1,1.9,1.9,3.2,2.2
						c0.9,0.2,2.1,0.1,2.5-0.7c0.1-0.3,0.1-0.6,0.1-1c0-3.3-0.6-6.6-1.9-9.6"/>
				</g>
				<g>
					<path class="st2" d="M419.4,132.7c-1.3-4.9-5.2-11.9-11.7-10.5c-4.1,0.9-7.8,3.6-9,7.5c-1.4,4.6,0.9,10,3.7,13.8
						c1,1.4,2.2,2.7,3.8,3.5c3.7,1.9,8.8,0.4,11.3-2.9C420,141.1,420.4,136.6,419.4,132.7z"/>
				</g>
				<path class="st2" d="M410.3,145.7l2.1,7.7l-2.9,1.4c0,0,2.2,2.9,6.5,2.3c8.8-1.3,11.6-7.4,11.6-7.4l-5-0.5l-5.5-9.4"/>
				<g>
					<path class="st1" d="M423.7,127.3c-0.6-3.4-3-6.3-6-8.1c-5.2-3.2-12.7-3.4-17.3,0.9c-2.6,2.5-7.4,11.3-1.7,13.1
						c1.8,0.5,3.6-0.5,5.2-1.6c1.6-1.1,3.1-2.1,4.7-3.2c0.6-0.4,1.2-0.8,1.8-0.8c1.1,0,2,0.9,2.4,2s0.4,2.2,0.7,3.3
						c0.2,0.8,0.5,1.6,1.2,2c0.7,0.4,1.7,0.3,2-0.4c0.2-0.5,0.1-1.1,0.1-1.6c0-0.5,0.3-1.2,0.8-1.2c0.2,0,0.4,0.1,0.5,0.2
						c1.4,1.1,0.9,3.2,1.4,4.9c0.1,0.2-0.4,3.6-0.2,3.8C423.7,139.7,424.1,129.8,423.7,127.3z"/>
				</g>
				<g>
					<path class="st2" d="M417.2,132.2c-0.1-0.6,0.5-1.2,1.1-1.3c0.6-0.1,1.2,0.3,1.7,0.7c0.8,0.7,1.4,1.7,1.4,2.8
						c0,0.8-0.3,1.7-0.8,2.4c-0.3,0.5-0.7,0.9-1.3,1.1c-0.7,0.2-1.5-0.1-2-0.6"/>
				</g>
			</g>
		</g>
		<g>
			<g>
				<g>
					<path class="st1" d="M260.7,397.6c0,0,9.5,1.6,9.7,3.7c0.1,1.2-13.3,2.6-14.2,1.9c-1.5-1.1,0.3-5.3,0.3-5.3L260.7,397.6z"/>
					<path class="st2" d="M260,391.7l0.8,6c0,0-0.2,1-1.5,1.3c-1.3,0.3-2.4-0.8-2.4-0.8l-1.1-7.5"/>
					<g>
						<path class="st1" d="M224.6,254.8c-1.7,14.8-1.8,21.9,4.8,32c3.1,14.3,7.9,28.9,11.5,43.6c-1.6,17.5,9.4,45.3,15.2,65.2
							l4.2-0.7c5.7-35.8,7.8-90.7,2.7-138.8"/>
					</g>
					<path class="st3" d="M227.3,274.8c0,0,16.3,51.9,16.3,54.7s0.4,12.5,1.2,18.8c1.3,11.5,11.7,45.4,11.7,45.4"/>
					<polygon class="st11" points="256,396.5 255.3,393.9 260.8,393.7 260.9,396.1 					"/>
				</g>
				<g>
					<path class="st1" d="M187.1,397.9c0,0,7.4,5.4,6.8,7.3c-0.4,1.1-12.4-3.4-12.9-4.4c-0.8-1.6,2.5-4.4,2.5-4.4L187.1,397.9z"/>
					<path class="st2" d="M188.9,392.6L187,398c0,0-0.6,0.8-1.9,0.5s-1.7-1.7-1.7-1.7l2.2-6.9"/>
					<g>
						<path class="st1" d="M192.7,251.7c-4.5,14.2-3.7,21.6,0.8,32.8c0.3,13.4,0.4,27,0.6,40.6c-9.5,23.9-11,45.4-9.8,68.2l4.6,1.7
							c0,0,27.4-47.9,32.4-66.8c5.8-21.7,9.1-44.9,9.9-66.7"/>
					</g>
					<path class="st3" d="M193.8,254.8c0,0-5,14.6,1.6,28.7c0,3.9,2.2,36.6,1.4,41.7c-0.4,2.4-4.9,14-7.9,25.2
						c-3.3,12.5-4,41.8-4,41.8"/>
					<polygon class="st11" points="183.4,393.4 184.1,390.3 190,393 188.9,395.7 					"/>
				</g>
			</g>
			<g>
				<path class="st12" d="M269.3,142.3l-3.7-3.2c0,0,0-5.5,0-6.5c0-1-1.4-7.1-2.6-7.1c-1.2,0-1.5-1.5-2.1-0.9c-0.6,0.6,0.5,7.5,0,8
					c-0.5,0.5-1.2-3.3-1.6-2.8c-0.5,0.5-0.5,3.2-0.5,4.7c0,1.4,1.1,4,2.2,5.2c1.1,1.1,6.1,6.5,6.1,6.5L269.3,142.3z"/>
				<g>
					<path class="st4" d="M267.4,140.2l-3.1,3.5c0,0,12.2,16.2,16,21.6c-3.5-1.2-8.6-4.3-11.5-6.3c-5.7-3.8-11.5-5.8-15.4-5.8
						c-8.4,0-4,27.9,5.8,32c18.6,2.8,39.4,1,42.6-5.5C306.5,170,279.3,147.2,267.4,140.2z"/>
				</g>
				<path class="st5" d="M280.4,165.3c0,0,2.3,6.5,6.5,8.6"/>
			</g>
			<g>
				<g>
					<path class="st4" d="M210.8,160.7c-22.1,24.9-21.8,67.8-21.8,97c0,0,16.2,11.1,41.1,11.1c24.9,0,35.2-6.1,35.2-6.1
						c0.7-29.5-4.5-42.3,0.4-91.1c0,0-7.9-18.2-12.1-18.2c-4.2,0-20.7-1.6-20.7-1.6L210.8,160.7z"/>
				</g>
				<path class="st5" d="M264.4,185.9c0,0,0.5-8.5,2.6-10.6"/>
			</g>
			<g>
				<path class="st2" d="M240,132.9c0.8-5,4.4-12.2,11-11.4c4.1,0.5,7.3,3.4,9.6,6.7c2,2.9,1.2,5.6-1.6,12.9
					c-0.9,1.5-2.8,4.1-4.3,5.1c-3.6,2.3-8.7,1.1-11.5-1.9S239.4,136.9,240,132.9z"/>
			</g>
			<g>
				<path class="st1" d="M240.9,132.3c0.9-0.1,0-0.8,0.4,0.1c0.3,0.6,0.3,0.7,0.9,0.9c0.5,0.2,0.5,0.7,1,1c0.7,0.5,1.3-0.2,1.6-0.8
					c0.5-1.1,0.5-2.4,0.4-3.6c-0.1-0.9-0.4-2.4,0.5-3c0.7-0.5,2.4,0.2,3.1,0.5c1.2,0.3,2.3,0.7,3.5,1.1c2.8,0.9,5.8,1.6,8.8,1.2
					c2.6-0.4,5.3-1.7,6.5-4.1c1.5-2.9-1.5-6.7-4.5-6.7c-0.8,0-1.6,0.3-2.3,0.5c-0.3,0.1-0.6,0.1-0.9,0c-0.7-0.2-1-0.9-1.3-1.5
					c-1.1-1.8-3.1-2.3-5-2.1c-2.3,0.2-4.2,1.3-6.3,1.9c-1.1,0.3-2.1,0-3.3,0.1c-1.2,0-2.4,0.8-2.9,1.9c-0.9-1-3,1.4-3.5,2
					c-2.2,2.7-3,6.7-3,10.1c-0.1,3,0.4,7.4,3.8,8.7c1.4,0.5,2.3,0.8,2.3-0.5c-0.6-1.3-0.8-4-0.9-5.1s0.2-2.4,1.2-2.9"/>
			</g>
			<path class="st2" d="M251.7,145l-0.7,7.6l2.5,0.7c0,0-1.3,3.4-5.7,4c-8.8,1.2-15.1-5.6-15.1-5.6l2.9-0.6l4.5-14.1"/>
			<g>
				<path class="st2" d="M242.4,132.3c0-0.6-0.6-1.2-1.2-1.2c-0.6,0-1.2,0.4-1.7,0.8c-2.5,2.5,0.6,8.5,3.1,5.4"/>
			</g>
			<g>
				<path class="st1" d="M259.1,141c-0.4,0.9-2,1.3-2.8,1.4c-4.2,0.5-7.6-2.2-11.6-2.7c-0.8-0.1-1.7-0.2-2.3,0.4
					c-0.6,0.5-0.6,1.4-0.6,2.1c0,0.9,0,1.9,0,2.8c0.1,0.8,0.2,1.6,0.6,2.3c1.8,3,7.8,3.5,10.8,3.3c1.2-0.1,2.5-0.3,3.5-1
					c1.4-1,1.7-2.8,2.2-4.4C259.5,143.1,259.1,141,259.1,141z"/>
			</g>
			<g>
				<path class="st2" d="M256.1,144.3c-0.1-0.1-0.3-0.2-0.4-0.2c-1.9,0-3-0.5-4.5-0.6c-0.3,0-0.5,0-0.8,0c-0.5,0.2-0.8,0.7-1,1.3
					c-0.1,0.5,0.2,1,0.7,1.2c0.9,0.4,1.9,0.6,2.9,0.6c0.9,0,2,0.1,2.7-0.5C256.1,145.8,256.7,144.7,256.1,144.3z"/>
			</g>
			<g>
				<path class="st6" d="M237.8,254.3c-48.3-2.5-76.5,22.5-96.5,68.1c-25.9,59.2-62.2,63.9-78.5,63.6"/>
				<path class="st7" d="M219.3,258.3c1.8,21.4,19,33,32.8,31.8l22.6-1.9l-5.7-68.6l-22.6,1.9C232.6,222.6,217.5,236.9,219.3,258.3z
					"/>
				<path class="st8" d="M230.9,257.3c1.7,20.9,15.5,36.8,30.7,35.6l25-2.1l-6.3-75.7l-25,2.1C240.1,218.4,229.2,236.4,230.9,257.3z
					"/>
				
					<ellipse transform="matrix(0.9966 -8.223949e-02 8.223949e-02 0.9966 -19.8565 24.0236)" class="st10" cx="281.7" cy="253.1" rx="27.7" ry="38"/>
				<g>
					<g>
						<path class="st7" d="M280.5,266.7c0.3,3.1,2.6,5.4,5.2,5.2c2.6-0.2,4.5-2.9,4.3-6s-2.6-5.4-5.2-5.2
							C282.2,260.9,280.2,263.6,280.5,266.7z"/>
					</g>
					<g>
						<path class="st7" d="M278.3,239.8c0.3,3.1,2.6,5.4,5.2,5.2c2.6-0.2,4.5-2.9,4.3-6c-0.3-3.1-2.6-5.4-5.2-5.2
							C279.9,234,278,236.7,278.3,239.8z"/>
					</g>
				</g>
				<g>
					<path class="st13" d="M283.8,243.3c2.8-0.2,35.3-3,35.3-3c2.2-0.2,3.8-2.1,3.6-4.3l0,0c-0.2-2.2-2.1-3.8-4.2-3.6
						c0,0-32.6,2.7-35.3,3C280.4,235.7,280.9,243.6,283.8,243.3z"/>
					<path class="st13" d="M286,270.2c2.8-0.2,35.3-3,35.3-3c2.2-0.2,3.8-2.1,3.6-4.3l0,0c-0.2-2.2-2.1-3.8-4.2-3.6
						c0,0-32.6,2.7-35.3,3C282.7,262.5,283.2,270.4,286,270.2z"/>
				</g>
			</g>
			<g>
				<g>
					<path class="st2" d="M199,192.6c0,0-1.8,17.9,6.2,32.9c6.8,12.8,20.4,29.3,31.4,38.4l2.6-0.6c-3.8-14.7-15.9-40.8-16.6-50.6
						c-0.8-9.8-0.6-21.1-0.8-26.6"/>
				</g>
				<path class="st4" d="M232.7,151.6c0,0-15.5,0.9-24.4,7.7c-15.4,11.7-12.4,43.1-7.9,58.4s26.1,38.4,33.1,43.3
					c1.1,0,4.5-0.3,4.4-2.9c-3.9-12-14.9-43.4-14.9-43.4l1.7-42.5"/>
				<g>
					<path class="st2" d="M238.3,261.1c1.7,0.2,3.3,1,4.7,2.1c1.3,1,2.9,2.7,2.7,3.5c-0.2,0.8-2.3-0.8-2.5-0.4
						c-0.3,0.3,3.6,6.2,2.9,6.6c-0.7,0.4-4-4.9-4-4.9s3.2,5.7,2,5.8c-1,0.1-3.9-5.3-3.9-5.3s2.4,4.8,1.6,5c-0.8,0.2-3.1-4.6-3.1-4.6
						s1.8,4.1,1.1,4.2c-0.4,0-2.1-2-2.9-4.5c-0.7-2.4-1.6-4.5-0.9-6.4"/>
				</g>
				<path class="st5" d="M227.3,227.2c-2.5-7.1-4.3-12.5-4.3-12.5l3.3-35.6"/>
				<path class="st5" d="M196.8,187.7c-0.1,9.7,1.1,21.6,3.5,30c2.2,7.4,8.3,16.6,14.8,24.6"/>
			</g>
		</g>
		<g>
			<path class="st2" d="M528.6,135.2l2.5-1.7c0,0,1.2-5.4,1.8-6.4c0.7-1,2-3.2,3.4-4.2c0.6-0.4,3.4-2,4.1-1.3c0.3,0.3-0.8,3.5-1.4,4
				c-0.5,0.5-2.1,3-1.9,3.7c0.2,0.8,1.6-0.9,1.9-1.2c0.3-0.3,0.7-0.7,0.9-0.3c0.2,0.7-1.2,4.5-2.3,5.6c-1.1,1.1-2.9,2.1-4.1,2.1
				l-3.9,3.4"/>
			<g>
				<path class="st1" d="M558.7,117.3c4.1,2.4,6.7,7,7.7,11.6c0.2,0.8,0.3,1.7,0.9,2.3c0.5,0.5,1.1,0.7,1.7,1c3.4,1.6,6,4.7,7.2,8.3
					c0.5,1.5,0.1,3.7,0.7,5c0.7,1.6,3.4,2,4.9,2.4c4.3,1.4,7.5,5.8,7.6,10.4c0,4.6-3.1,9-7.4,10.6c1.2,1.6,1.3,3.8,0.8,5.7
					c-0.5,1.9-1.7,3.6-3,5.1c-5.5,6.2-13.9,9.5-22.1,9.2c-2.4-0.1-4.8-0.5-7-1.4c-2.5-1-4.7-2.7-6.8-4.3c-2.5-2-5.1-4.3-6.4-7.2
					c-1.4-3-1.3-6.8,1-9.1c-2.7,0.6-5.5-0.9-7-3.2c-1.5-2.3-1.8-5.2-1.2-7.9c0.6-2.7,2-5.1,3.6-7.3c1.1-1.5,2.5-3.1,2.7-5
					c0.4-3.2-1.4-6-1.8-9.2c-0.7-4.9-0.5-9.2,3.7-11.8c1.3-3.5,3-6.2,6.8-7.2C550,114.1,554.6,114.9,558.7,117.3z"/>
			</g>
			<path class="st14" d="M548.6,154.7c-14-3.7-30.1,2.1-33.6,2.1c4.9-4.9,13.9-15.8,17-19.6c0-2.6-1.6-3.3-1.6-3.3
				s-38.4,19.9-34.6,33c4,13.6,41.7,6.9,44.7,10.8"/>
			<g>
				<path class="st2" d="M551.3,281.3c0,1.2-5.1,25.9-5.4,28.6c-1.1,7.7,3,15.5,2.6,27.5c-0.5,14.6-6.7,53.8-7.4,55.5
					c-0.8,1.7-4.6,0.1-4.6,0.1s-10.9-52.6-11.5-74.1c-0.5-17.7,2.1-56.1,2.1-56.1"/>
				<path class="st1" d="M541.4,393.5c0,0,0.6,1.3,0.6,1.9c-0.1,1.6-0.1,2.7-0.1,2.7l-0.7,0l-0.2-1.3c0,0-1.9,0.3-3.8,1.6
					c-0.9,0.6-5.6,0.6-6.3,0.2c-0.8-0.4-0.6-1.2-0.3-1.5c0.3-0.3,5.3-2.5,5.3-2.5"/>
				<path class="st2" d="M536.5,393c-0.4,1-4.4,3.2-4,3.5c0.4,0.3,2.7,0.3,5.2-0.6c2.3-0.8,3.7-1.7,3.7-2.3L541,392"/>
			</g>
			<g>
				<path class="st2" d="M586.2,282.3c0,1.2-4.3,26.1-4.6,28.7c-0.8,7.8,3.5,15.4,3.4,27.4c0,14.6-5,54-5.8,55.7
					c-0.7,1.8-4.5,0.3-4.5,0.3s-12.5-52.2-13.7-73.7c-1-17.7,0.4-56.1,0.4-56.1"/>
				<path class="st1" d="M579.7,394.8c0,0,0.7,1.3,0.7,1.9c0,1.6,0,2.8,0,2.8l-0.7,0.1l-0.3-1.3c0,0-1.9,0.4-3.7,1.7
					c-0.9,0.6-5.6,0.7-6.3,0.4c-0.8-0.4-0.6-1.2-0.3-1.5c0.3-0.3,5.2-2.7,5.2-2.7"/>
				<path class="st2" d="M574.8,394.4c-0.4,1-4.3,3.3-3.9,3.6c0.4,0.3,2.7,0.2,5.2-0.7c2.3-0.9,3.6-1.8,3.7-2.4l-0.5-1.6"/>
			</g>
			<path class="st15" d="M573.5,218.6c0,0,11.1,7.3,15.4,24.9c5.7,23.7-2.7,70-2.7,70s-17.4,5.1-36.4,5c-19-0.2-30.2-6.6-30.2-7.7
				c0-1.2-2.8-36.2,1-60.1c4.3-26.7,15.3-33.9,15.3-33.9"/>
			<g>
				<g>
					<path class="st14" d="M558.4,154.3c1.7-0.6,6.2,0.9,14.6,4.2c3.7,4,5.3,12.8,6.1,20.5c-2.2,18.9-4.6,29.2-3.4,35.6
						c0.3,1.5,1.7,2.7,1.4,4.8c-0.5,4.4-7.6,5-21.1,6.6c-13.5,1.5-25.6-4.6-24.9-6.5c0.7-1.9,3-3.6,3.4-4.9c0.4-1.3,1.5-17.4,0-19.4
						c-1.5-1.9-5.2-7.4-5.2-12.8c0-7.6,4.2-11,6.9-15.1c4.5-6.9,8-11.3,12.4-12.4C555.6,153,558.4,154.3,558.4,154.3z"/>
				</g>
				<path class="st16" d="M535.7,163.8c0,0,0.5,3.2-1.2,6c-0.5,0.8-3.6,4-4.2,6"/>
			</g>
			<g>
				<path class="st2" d="M555.2,145c3.7-3.7,4.3-10.6,2.6-15.3c-1.9-5.3-9.4-9.3-14.6-5.9C533,130.3,543.3,156.8,555.2,145z"/>
			</g>
			<path class="st2" d="M548.2,144.4l0.2,11.3c0,0-0.4,2.5,4,2.7c6.1,0.2,6.1-4.1,6.1-4.1l-3.5-11.7"/>
			<g>
				<path class="st1" d="M552.8,118.7c-1.2-0.8-2.6-0.9-3.9-0.1c-0.8,0.5-1.3,1.2-2.2,1.6c-0.6,0.3-1.3,0.3-1.9,0.5
					c-2.9,0.8-5.7,3-7,5.9c-1.2,2.8-0.8,7.4,1.5,9.4c-0.1-2.2,0.6-5.3,1.7-7.2c0.6-1,1.6-1.9,2.7-1.8c1.3,0.1,2,1.5,2.9,2.4
					c1.4,1.4,3.4,1.6,5.2,1.9c2.1,0.3,3.7,0.7,4.7,2.7c0.4,0.9,0.7,1.9,0.9,2.8c0.3,1.1,0.6,2.3,0.6,3.5c0,0.7,0,1.5,0.2,2.2
					c0.5,1.4,1.9,2.2,3.3,2.7c1.1,0.4,2.9,0.7,3.5-0.5c0.6-1,1-2.4,1.2-3.6c0.6-3.8-0.6-7.7-2.6-11c-2.2-3.6-5.4-6-8.3-9
					C554.6,120.3,553.7,119.4,552.8,118.7z"/>
			</g>
			<g>
				<path class="st2" d="M555.6,136.2c0.2-0.9,0.9-1.7,1.7-1.9c2.9-0.4,2.4,3.9,1.3,5.4c-0.6,0.9-2.3,2-3.1-0.4"/>
			</g>
			<g>
				<path class="st2" d="M586.1,224.4l-1.4,2.9c0,0-5.1,1.2-5.6,2.1c-0.9,1.4-2.1,3.4-2.1,4.5c0,1.1,0.1,6,1.5,6
					c0.9,0,2.9-4,3.4-4.6c1-1.3,5-2.3,5-5.8l2.5-5.2"/>
				<path class="st14" d="M558.4,154.1c0,0,11.9-3,21.2,2.9c7.2,4.6,25.8,27.4,25.8,40.4c0,8.8-17.4,30.6-17.4,30.6l-2.9-2.1
					c0,0,1.7-17.1,6.7-26.6c-3.7-3.7-18.3-15.4-21.9-19"/>
				<path class="st16" d="M568.1,179.1c2.6,2.3,9.5,7.9,9.5,7.9"/>
			</g>
		</g>
	</g>
</g>
</svg>
